<?xml version="1.0" encoding="UTF-8" standalone="no"?>
<!-- Created with Inkscape (http://www.inkscape.org/) -->

<svg
   width="210mm"
   height="297mm"
   viewBox="0 0 210 297"
   version="1.1"
   id="svg5"
   sodipodi:docname="drawing-1.svg"
   inkscape:version="1.1.2 (b8e25be833, 2022-02-05)"
   xmlns:inkscape="http://www.inkscape.org/namespaces/inkscape"
   xmlns:sodipodi="http://sodipodi.sourceforge.net/DTD/sodipodi-0.dtd"
   xmlns="http://www.w3.org/2000/svg"
   xmlns:svg="http://www.w3.org/2000/svg">
   <sodipodi:namedview
      id="namedview41"
      pagecolor="#ffffff"
      bordercolor="#666666"
      borderopacity="1.0"
      inkscape:pageshadow="2"
      inkscape:pageopacity="0.0"
      inkscape:pagecheckerboard="0"
      inkscape:document-units="mm"
      showgrid="false"
      inkscape:zoom="0.30047574"
      inkscape:cx="196.35529"
      inkscape:cy="232.9639"
      inkscape:window-width="1366"
      inkscape:window-height="705"
      inkscape:window-x="-8"
      inkscape:window-y="-8"
      inkscape:window-maximized="1"
      inkscape:current-layer="svg5" />
   <defs
      id="defs2" />
   <g>
      <path
         style="fill:#ff00ff;stroke:none;stroke-width:0.264583px;stroke-linecap:butt;stroke-linejoin:miter;stroke-opacity:1"
         d="m 63.314928,-2.6061412 c 0,0 -11.446741,-0.093563 -21.720242,17.8743022 C 31.321172,33.236026 67.15852,11.954802 63.314928,-2.6061412 Z"
         id="path867-7-7-71-1-5-7-8" />
      <path
         style="fill:#008000;stroke:none;stroke-width:0.264583px;stroke-linecap:butt;stroke-linejoin:miter;stroke-opacity:1"
         d="m 206.53285,8.6813109 c -4.98113,11.8301891 0,19.3018871 4.35849,17.4339611 4.35849,-1.867924 -4.35849,-17.4339611 -4.35849,-17.4339611 z"
         id="path859-07" />
      <path
         style="fill:#008000;stroke:none;stroke-width:0.264583px;stroke-linecap:butt;stroke-linejoin:miter;stroke-opacity:1"
         d="m 199.06115,36.700179 c -6.84905,-5.603774 -8.09434,-28.0188681 -8.09434,-28.0188681 0,0 13.69812,14.3207541 8.09434,28.0188681 z"
         id="path865-40" />
      <path
         style="fill:#ff00ff;stroke:none;stroke-width:0.264583px;stroke-linecap:butt;stroke-linejoin:miter;stroke-opacity:1"
         d="m 184.58914,34.503813 c 0,0 8.09434,8.09434 28.01886,2.490566 19.92453,-5.603773 -20.54717,-15.566038 -28.01886,-2.490566 z"
         id="path867-7-7" />
      <path
         style="fill:#0000ff;stroke:none;stroke-width:0.217428px;stroke-linecap:butt;stroke-linejoin:miter;stroke-opacity:1"
         d="m 189.68616,49.54842 c 0,0 -16.5455,-17.810366 -25.24477,-16.762753 -8.69926,1.047614 18.98255,-22.179139 25.24477,16.762753 z"
         id="path871-2" />
      <path
         style="fill:#008000;stroke:none;stroke-width:0.264583px;stroke-linecap:butt;stroke-linejoin:miter;stroke-opacity:1"
         d="m 143.22814,31.882992 c 8.85209,-9.295456 6.84379,-18.047864 2.10616,-17.846667 -4.73762,0.201195 -2.10616,17.846667 -2.10616,17.846667 z"
         id="path859-07-9" />
      <path
         style="fill:#008000;stroke:none;stroke-width:0.264583px;stroke-linecap:butt;stroke-linejoin:miter;stroke-opacity:1"
         d="m 160.14894,8.3336896 c 4.41717,7.6681414 -2.36607,29.0684884 -2.36607,29.0684884 0,0 -7.73052,-18.247235 2.36607,-29.0684884 z"
         id="path865-40-7" />
      <path
         style="fill:#ff00ff;stroke:none;stroke-width:0.264583px;stroke-linecap:butt;stroke-linejoin:miter;stroke-opacity:1"
         d="m 172.90196,15.51864 c 0,0 -4.69848,-10.4384354 -25.31543,-12.2632865 -20.61696,-1.8248556 13.69306,21.8400525 25.31543,12.2632865 z"
         id="path867-7-7-7" />
      <path
         style="fill:#0000ff;stroke:none;stroke-width:0.217428px;stroke-linecap:butt;stroke-linejoin:miter;stroke-opacity:1"
         d="m 173.4704,-0.35576365 c 0,0 9.15561,22.51971365 17.66114,24.62462665 8.50553,2.104909 -25.61324,14.007621 -17.66114,-24.62462665 z"
         id="path871-2-3" />
      <path
         style="fill:#008000;stroke:none;stroke-width:0.264583px;stroke-linecap:butt;stroke-linejoin:miter;stroke-opacity:1"
         d="m 129.0793,5.2181365 c -4.98113,11.8301895 0,19.3018875 4.35849,17.4339615 4.35849,-1.867924 -4.35849,-17.4339615 -4.35849,-17.4339615 z"
         id="path859-07-5" />
      <path
         style="fill:#008000;stroke:none;stroke-width:0.264583px;stroke-linecap:butt;stroke-linejoin:miter;stroke-opacity:1"
         d="m 121.6076,33.237005 c -6.84905,-5.603774 -8.09434,-28.0188685 -8.09434,-28.0188685 0,0 13.69812,14.3207545 8.09434,28.0188685 z"
         id="path865-40-1" />
      <path
         style="fill:#ff00ff;stroke:none;stroke-width:0.264583px;stroke-linecap:butt;stroke-linejoin:miter;stroke-opacity:1"
         d="m 107.13559,31.040639 c 0,0 8.09434,8.09434 28.01886,2.490566 19.92453,-5.603773 -20.54717,-15.566038 -28.01886,-2.490566 z"
         id="path867-7-7-3" />
      <path
         style="fill:#0000ff;stroke:none;stroke-width:0.217428px;stroke-linecap:butt;stroke-linejoin:miter;stroke-opacity:1"
         d="m 112.23261,46.085246 c 0,0 -16.545496,-17.810366 -25.244756,-16.762753 -8.69927,1.047614 18.982546,-22.1791395 25.244756,16.762753 z"
         id="path871-2-0" />
      <path
         style="fill:#008000;stroke:none;stroke-width:0.264583px;stroke-linecap:butt;stroke-linejoin:miter;stroke-opacity:1"
         d="m 65.774594,28.419818 c 8.85209,-9.295456 6.84379,-18.047864 2.10616,-17.846667 -4.73762,0.201195 -2.10616,17.846667 -2.10616,17.846667 z"
         id="path859-07-9-2" />
      <path
         style="fill:#008000;stroke:none;stroke-width:0.264583px;stroke-linecap:butt;stroke-linejoin:miter;stroke-opacity:1"
         d="m 82.695394,4.8705155 c 4.41717,7.6681415 -2.36607,29.0684885 -2.36607,29.0684885 0,0 -7.73052,-18.247235 2.36607,-29.0684885 z"
         id="path865-40-7-0" />
      <path
         style="fill:#ff00ff;stroke:none;stroke-width:0.264583px;stroke-linecap:butt;stroke-linejoin:miter;stroke-opacity:1"
         d="m 95.448414,12.055466 c 0,0 -4.69847,-10.4384355 -25.31543,-12.26328746 C 49.516024,-2.0326765 83.826054,21.632232 95.448414,12.055466 Z"
         id="path867-7-7-7-9" />
      <path
         style="fill:#0000ff;stroke:none;stroke-width:0.217428px;stroke-linecap:butt;stroke-linejoin:miter;stroke-opacity:1"
         d="m 96.016854,-3.8189385 c 0,0 9.155606,22.5197145 17.661136,24.6246275 8.50553,2.104909 -25.613236,14.007621 -17.661136,-24.6246275 z"
         id="path871-2-3-1" />
      <path
         style="fill:#008000;stroke:none;stroke-width:0.264583px;stroke-linecap:butt;stroke-linejoin:miter;stroke-opacity:1"
         d="m 50.231917,72.575212 c 4.353802,-12.075158 -1.01235,-19.275321 -5.266871,-17.181371 -4.254522,2.093949 5.266871,17.181371 5.266871,17.181371 z"
         id="path859-07-55" />
      <path
         style="fill:#008000;stroke:none;stroke-width:0.264583px;stroke-linecap:butt;stroke-linejoin:miter;stroke-opacity:1"
         d="m 56.223793,44.203031 c 7.133532,5.23684 9.55274,27.55577 9.55274,27.55577 0,0 -14.430365,-13.582602 -9.55274,-27.55577 z"
         id="path865-40-3" />
      <path
         style="fill:#ff00ff;stroke:none;stroke-width:0.264583px;stroke-linecap:butt;stroke-linejoin:miter;stroke-opacity:1"
         d="m 70.79108,45.637343 c 0,0 -8.507733,-7.658666 -28.110922,-1.017599 -19.603198,6.641066 21.335301,14.466951 28.110922,1.017599 z"
         id="path867-7-7-71" />
      <path
         style="fill:#0000ff;stroke:none;stroke-width:0.217428px;stroke-linecap:butt;stroke-linejoin:miter;stroke-opacity:1"
         d="m 64.912013,30.880772 c 0,0 17.456847,16.91807 26.089197,15.415638 8.63234,-1.502433 -17.793163,23.144214 -26.089197,-15.415638 z"
         id="path871-2-7" />
      <path
         style="fill:#008000;stroke:none;stroke-width:0.264583px;stroke-linecap:butt;stroke-linejoin:miter;stroke-opacity:1"
         d="m 112.23261,46.085246 c -8.35238,9.746938 -5.88779,18.381968 -1.16723,17.932568 4.72054,-0.449398 1.16723,-17.932568 1.16723,-17.932568 z"
         id="path859-07-9-7" />
      <path
         style="fill:#008000;stroke:none;stroke-width:0.264583px;stroke-linecap:butt;stroke-linejoin:miter;stroke-opacity:1"
         d="m 96.57022,70.489601 c -4.81327,-7.425914 0.83822,-29.152575 0.83822,-29.152575 0,0 8.67692,17.816668 -0.83822,29.152575 z"
         id="path865-40-7-3" />
      <path
         style="fill:#ff00ff;stroke:none;stroke-width:0.264583px;stroke-linecap:butt;stroke-linejoin:miter;stroke-opacity:1"
         d="m 83.45791,63.983413 c 0,0 5.23949,10.177641 25.92378,10.91866 20.68429,0.74102 -14.81969,-21.091817 -25.92378,-10.91866 z"
         id="path867-7-7-7-1" />
      <path
         style="fill:#0000ff;stroke:none;stroke-width:0.217428px;stroke-linecap:butt;stroke-linejoin:miter;stroke-opacity:1"
         d="m 83.72284,79.865782 c 0,0 -10.324128,-22.008523 -18.92835,-23.664439 -8.604222,-1.655912 24.84331,-15.331711 18.92835,23.664439 z"
         id="path871-2-3-9" />
      <path
         style="fill:#008000;stroke:none;stroke-width:0.264583px;stroke-linecap:butt;stroke-linejoin:miter;stroke-opacity:1"
         d="M 28.59819,48.793193 C 19.555258,57.903098 21.38164,66.695267 26.122423,66.592351 30.863196,66.489436 28.59819,48.793193 28.59819,48.793193 Z"
         id="path859-07-9-2-7" />
      <path
         style="fill:#008000;stroke:none;stroke-width:0.264583px;stroke-linecap:butt;stroke-linejoin:miter;stroke-opacity:1"
         d="m 11.192721,71.986571 c -4.2572185,-7.758085 2.968312,-29.013177 2.968312,-29.013177 0,0 7.350492,18.403608 -2.968312,29.013177 z"
         id="path865-40-7-0-0" />
      <path
         style="fill:#ff00ff;stroke:none;stroke-width:0.264583px;stroke-linecap:butt;stroke-linejoin:miter;stroke-opacity:1"
         d="m -1.4085745,64.538725 c 0,0 4.481014,10.533616 25.0557025,12.785579 C 44.221815,79.576271 10.409867,55.205013 -1.4085745,64.538725 Z"
         id="path867-7-7-7-9-7" />
      <path
         style="fill:#008000;stroke:none;stroke-width:0.264583px;stroke-linecap:butt;stroke-linejoin:miter;stroke-opacity:1"
         d="M 45.053111,4.9695782 C 40.44986,16.951861 45.665559,24.261747 49.962585,22.256467 54.259611,20.251188 45.053111,4.9695782 45.053111,4.9695782 Z"
         id="path859-07-55-0" />
      <path
         style="fill:#008000;stroke:none;stroke-width:0.264583px;stroke-linecap:butt;stroke-linejoin:miter;stroke-opacity:1"
         d="M 38.474211,33.211414 C 31.450801,27.827783 29.494908,5.4634877 29.494908,5.4634877 c 0,0 14.14562,13.8789033 8.979303,27.7479263 z"
         id="path865-40-3-2" />
      <path
         style="fill:#ff00ff;stroke:none;stroke-width:0.264583px;stroke-linecap:butt;stroke-linejoin:miter;stroke-opacity:1"
         d="m 23.939798,31.47535 c 0,0 8.347096,7.833432 28.083777,1.600276 C 71.760264,26.84247 30.992841,18.169386 23.939798,31.47535 Z"
         id="path867-7-7-71-1" />
      <path
         style="fill:#0000ff;stroke:none;stroke-width:0.217428px;stroke-linecap:butt;stroke-linejoin:miter;stroke-opacity:1"
         d="m 29.511615,46.350654 c 0,0 -17.102288,-17.276409 -25.7639405,-15.953297 -8.661638,1.323114 18.2692495,-22.7702872 25.7639405,15.953297 z"
         id="path871-2-7-6" />
      <path
         style="fill:#0000ff;stroke:none;stroke-width:0.217428px;stroke-linecap:butt;stroke-linejoin:miter;stroke-opacity:1"
         d="m 11.720563,-3.0138762 c 0,0 9.86555,22.2178672 18.433585,24.0518402 8.568036,1.833969 -25.1558845,14.813275 -18.433585,-24.0518402 z"
         id="path871-2-3-9-1" />
      <path
         style="fill:#008000;stroke:none;stroke-width:0.264583px;stroke-linecap:butt;stroke-linejoin:miter;stroke-opacity:1"
         d="m 127.7605,71.97132 c 4.3538,-12.075159 -1.01235,-19.275322 -5.26687,-17.181372 -4.25452,2.093948 5.26687,17.181372 5.26687,17.181372 z"
         id="path859-07-5-5" />
      <path
         style="fill:#008000;stroke:none;stroke-width:0.264583px;stroke-linecap:butt;stroke-linejoin:miter;stroke-opacity:1"
         d="m 133.75238,43.599137 c 7.13353,5.236841 9.55274,27.555771 9.55274,27.555771 0,0 -14.43037,-13.582602 -9.55274,-27.555771 z"
         id="path865-40-1-8" />
      <path
         style="fill:#ff00ff;stroke:none;stroke-width:0.264583px;stroke-linecap:butt;stroke-linejoin:miter;stroke-opacity:1"
         d="m 148.31966,45.033449 c 0,0 -8.50773,-7.658665 -28.11092,-1.017599 -19.6032,6.641067 21.3353,14.466952 28.11092,1.017599 z"
         id="path867-7-7-3-0" />
      <path
         style="fill:#0000ff;stroke:none;stroke-width:0.217428px;stroke-linecap:butt;stroke-linejoin:miter;stroke-opacity:1"
         d="m 142.4406,30.276879 c 0,0 17.45685,16.91807 26.08919,15.415638 8.63235,-1.502433 -17.79317,23.144215 -26.08919,-15.415638 z"
         id="path871-2-0-6" />
      <path
         style="fill:#008000;stroke:none;stroke-width:0.264583px;stroke-linecap:butt;stroke-linejoin:miter;stroke-opacity:1"
         d="m 189.76119,45.481352 c -8.35237,9.746939 -5.88779,18.381969 -1.16723,17.932568 4.72055,-0.449398 1.16723,-17.932568 1.16723,-17.932568 z"
         id="path859-07-9-2-4" />
      <path
         style="fill:#008000;stroke:none;stroke-width:0.264583px;stroke-linecap:butt;stroke-linejoin:miter;stroke-opacity:1"
         d="m 174.0988,69.885709 c -4.81327,-7.425915 0.83823,-29.152577 0.83823,-29.152577 0,0 8.67691,17.816669 -0.83823,29.152577 z"
         id="path865-40-7-0-8" />
      <path
         style="fill:#ff00ff;stroke:none;stroke-width:0.264583px;stroke-linecap:butt;stroke-linejoin:miter;stroke-opacity:1"
         d="m 160.9865,63.37952 c 0,0 5.23948,10.177643 25.92377,10.918659 20.6843,0.741022 -14.81969,-21.091816 -25.92377,-10.918659 z"
         id="path867-7-7-7-9-2" />
      <path
         style="fill:#0000ff;stroke:none;stroke-width:0.217428px;stroke-linecap:butt;stroke-linejoin:miter;stroke-opacity:1"
         d="m 161.25142,79.26189 c 0,0 -10.32412,-22.008524 -18.92835,-23.66444 -8.60422,-1.655912 24.84332,-15.331711 18.92835,23.66444 z"
         id="path871-2-3-1-6" />
      <path
         style="fill:#ff0000;stroke:none;stroke-width:0.264583px;stroke-linecap:butt;stroke-linejoin:miter;stroke-opacity:1"
         d="M -1.4378398,42.859978 C 5.5019429,32.061623 1.8787289,23.845159 -2.7358977,24.936406 c -4.6146249,1.091236 1.2980579,17.923572 1.2980579,17.923572 z"
         id="path859-07-3" />
      <path
         style="fill:#ff0000;stroke:none;stroke-width:0.264583px;stroke-linecap:butt;stroke-linejoin:miter;stroke-opacity:1"
         d="m 10.737109,16.541657 c 5.784311,6.697283 3.159582,28.992973 3.159582,28.992973 0,0 -11.0337131,-16.461457 -3.159582,-28.992973 z"
         id="path865-40-8" />
      <path
         style="fill:#ffff00;stroke:none;stroke-width:0.264583px;stroke-linecap:butt;stroke-linejoin:miter;stroke-opacity:1"
         d="m 24.616488,21.192031 c 0,0 -6.583137,-9.364775 -27.1741992,-7.267901 -20.5910738,2.096882 17.5669262,18.865072 27.1741992,7.267901 z"
         id="path867-7-7-5" />
      <path
         style="fill:#ff6600;stroke:none;stroke-width:0.217428px;stroke-linecap:butt;stroke-linejoin:miter;stroke-opacity:1"
         d="m 22.180331,5.4953735 c 0,0 13.239137,20.3884305 21.989034,20.8511535 8.749885,0.46273 -22.511184,18.587578 -21.989034,-20.8511535 z"
         id="path871-2-37" />
      <path
         style="fill:#ff0000;stroke:none;stroke-width:0.264583px;stroke-linecap:butt;stroke-linejoin:miter;stroke-opacity:1"
         d="m 64.912012,30.880772 c -10.317638,7.636191 -9.843098,16.603497 -5.141359,17.219348 4.70173,0.615839 5.141359,-17.219348 5.141359,-17.219348 z"
         id="path859-07-9-8" />
      <path
         style="fill:#ff0000;stroke:none;stroke-width:0.264583px;stroke-linecap:butt;stroke-linejoin:miter;stroke-opacity:1"
         d="m 44.196486,51.172395 c -3.033888,-8.31308 7.325606,-28.229611 7.325606,-28.229611 0,0 4.480193,19.30416 -7.325606,28.229611 z"
         id="path865-40-7-7" />
      <path
         style="fill:#ffff00;stroke:none;stroke-width:0.264583px;stroke-linecap:butt;stroke-linejoin:miter;stroke-opacity:1"
         d="m 32.8677,41.903002 c 0,0 2.835004,11.090514 22.831767,16.430754 C 75.696241,63.673998 45.962751,34.465701 32.8677,41.903002 Z"
         id="path867-7-7-7-3" />
      <path
         style="fill:#ff6600;stroke:none;stroke-width:0.217428px;stroke-linecap:butt;stroke-linejoin:miter;stroke-opacity:1"
         d="m 29.580076,57.443644 c 0,0 -5.149966,-23.757964 -13.167317,-27.29304 -8.0173511,-3.535076 27.639177,-9.398265 13.167317,27.29304 z"
         id="path871-2-3-4" />
      <path
         style="fill:#ff0000;stroke:none;stroke-width:0.264583px;stroke-linecap:butt;stroke-linejoin:miter;stroke-opacity:1"
         d="m 74.268702,59.580193 c 6.939782,-10.798355 3.316568,-19.014818 -1.298057,-17.923582 -4.614626,1.091247 1.298057,17.923582 1.298057,17.923582 z"
         id="path859-07-5-6" />
      <path
         style="fill:#ff0000;stroke:none;stroke-width:0.264583px;stroke-linecap:butt;stroke-linejoin:miter;stroke-opacity:1"
         d="m 86.443651,33.261873 c 5.784312,6.697272 3.159582,28.992972 3.159582,28.992972 0,0 -11.033712,-16.461466 -3.159582,-28.992972 z"
         id="path865-40-1-5" />
      <path
         style="fill:#ffff00;stroke:none;stroke-width:0.264583px;stroke-linecap:butt;stroke-linejoin:miter;stroke-opacity:1"
         d="m 100.32303,37.912236 c 0,0 -6.583136,-9.364774 -27.1742,-7.26789 -20.591072,2.096872 17.566928,18.865061 27.1742,7.26789 z"
         id="path867-7-7-3-07" />
      <path
         style="fill:#ff6600;stroke:none;stroke-width:0.217428px;stroke-linecap:butt;stroke-linejoin:miter;stroke-opacity:1"
         d="m 97.886872,22.215589 c 0,0 13.239138,20.38842 21.989018,20.851151 8.7499,0.462723 -22.511176,18.587579 -21.989018,-20.851151 z"
         id="path871-2-0-4" />
      <path
         style="fill:#ff0000;stroke:none;stroke-width:0.264583px;stroke-linecap:butt;stroke-linejoin:miter;stroke-opacity:1"
         d="m 140.61855,47.600977 c -10.31764,7.636191 -9.8431,16.603507 -5.14136,17.219348 4.70173,0.615849 5.14136,-17.219348 5.14136,-17.219348 z"
         id="path859-07-9-2-75" />
      <path
         style="fill:#ff0000;stroke:none;stroke-width:0.264583px;stroke-linecap:butt;stroke-linejoin:miter;stroke-opacity:1"
         d="m 119.90302,67.892609 c -3.03388,-8.313089 7.32561,-28.22961 7.32561,-28.22961 0,0 4.4802,19.30415 -7.32561,28.22961 z"
         id="path865-40-7-0-3" />
      <path
         style="fill:#ffff00;stroke:none;stroke-width:0.264583px;stroke-linecap:butt;stroke-linejoin:miter;stroke-opacity:1"
         d="m 108.57424,58.623217 c 0,0 2.83499,11.090502 22.83177,16.430744 19.99677,5.340251 -9.73673,-23.868056 -22.83177,-16.430744 z"
         id="path867-7-7-7-9-4" />
      <path
         style="fill:#ff6600;stroke:none;stroke-width:0.217428px;stroke-linecap:butt;stroke-linejoin:miter;stroke-opacity:1"
         d="m 105.28662,74.163849 c 0,0 -5.14997,-23.757953 -13.167318,-27.293039 -8.017351,-3.535077 27.639178,-9.398266 13.167318,27.293039 z"
         id="path871-2-3-1-2" />
      <path
         style="fill:#ff0000;stroke:none;stroke-width:0.264583px;stroke-linecap:butt;stroke-linejoin:miter;stroke-opacity:1"
         d="m 163.51712,6.7729345 c -6.36388,11.1474725 -2.31471,19.1625925 2.23633,17.8308225 4.55104,-1.331769 -2.23633,-17.8308225 -2.23633,-17.8308225 z"
         id="path859-07-55-4" />
      <path
         style="fill:#ff0000;stroke:none;stroke-width:0.264583px;stroke-linecap:butt;stroke-linejoin:miter;stroke-opacity:1"
         d="m 152.73927,33.693583 c -6.12761,-6.384681 -4.67586,-28.7873516 -4.67586,-28.7873516 0,0 11.8819,15.8601036 4.67586,28.7873516 z"
         id="path865-40-3-3" />
      <path
         style="fill:#ffff00;stroke:none;stroke-width:0.264583px;stroke-linecap:butt;stroke-linejoin:miter;stroke-opacity:1"
         d="m 138.63509,29.777564 c 0,0 7.06525,9.006606 27.51799,5.832656 20.45276,-3.173958 -18.53219,-17.917749 -27.51799,-5.832656 z"
         id="path867-7-7-71-8" />
      <path
         style="fill:#ff6600;stroke:none;stroke-width:0.217428px;stroke-linecap:butt;stroke-linejoin:miter;stroke-opacity:1"
         d="m 141.89116,45.324842 c 0,0 -14.29025,-19.665995 -23.05237,-19.669173 -8.76211,-0.0032 21.50531,-19.7426634 23.05237,19.669173 z"
         id="path871-2-7-8" />
      <path
         style="fill:#ff0000;stroke:none;stroke-width:0.264583px;stroke-linecap:butt;stroke-linejoin:miter;stroke-opacity:1"
         d="M 97.886872,22.215589 C 107.78981,14.048769 106.8456,5.1186847 102.11803,4.7502853 97.390475,4.3818895 97.886872,22.215589 97.886872,22.215589 Z"
         id="path859-07-9-7-3" />
      <path
         style="fill:#ff0000;stroke:none;stroke-width:0.264583px;stroke-linecap:butt;stroke-linejoin:miter;stroke-opacity:1"
         d="M 117.50963,0.86539545 C 120.97535,9.0079076 111.6747,29.44037 111.6747,29.44037 c 0,0 -5.4865,-19.04261 5.83493,-28.57497455 z"
         id="path865-40-7-3-9" />
      <path
         style="fill:#ffff00;stroke:none;stroke-width:0.264583px;stroke-linecap:butt;stroke-linejoin:miter;stroke-opacity:1"
         d="m 129.30899,9.527858 c 0,0 -3.41278,-10.9265521 -23.66211,-15.2106524 -20.249337,-4.2841002 10.97515,23.3245374 23.66211,15.2106524 z"
         id="path867-7-7-7-1-9" />
      <path
         style="fill:#ff6600;stroke:none;stroke-width:0.217428px;stroke-linecap:butt;stroke-linejoin:miter;stroke-opacity:1"
         d="m 131.777,-6.16382 c 0,0 6.38895,23.455148 14.58067,26.56487 8.19173,3.109713 -27.10821,10.834957 -14.58067,-26.56487 z"
         id="path871-2-3-9-4" />
      <path
         style="fill:#ff0000;stroke:none;stroke-width:0.264583px;stroke-linecap:butt;stroke-linejoin:miter;stroke-opacity:1"
         d="m 180.74272,33.918491 c 10.47376,-7.420609 10.18526,-16.395836 5.49731,-17.109037 -4.68795,-0.7132 -5.49731,17.109037 -5.49731,17.109037 z"
         id="path859-07-9-2-7-9" />
      <path
         style="fill:#ff0000;stroke:none;stroke-width:0.264583px;stroke-linecap:butt;stroke-linejoin:miter;stroke-opacity:1"
         d="m 201.87455,14.060773 c 2.86086,8.374207 -7.90939,28.071642 -7.90939,28.071642 0,0 -4.07895,-19.392905 7.90939,-28.071642 z"
         id="path865-40-7-0-0-9" />
      <path
         style="fill:#ffff00;stroke:none;stroke-width:0.264583px;stroke-linecap:butt;stroke-linejoin:miter;stroke-opacity:1"
         d="m 213.0087,23.563085 c 0,0 -2.60442,-11.146912 -22.48616,-16.9006478 -19.88174,-5.75374554 9.23971,24.0648238 22.48616,16.9006478 z"
         id="path867-7-7-7-9-7-3" />
      <path
         style="fill:#ff0000;stroke:none;stroke-width:0.264583px;stroke-linecap:butt;stroke-linejoin:miter;stroke-opacity:1"
         d="m 157.00249,74.26294 c 6.59365,-11.013112 2.71156,-19.110478 -1.86612,-17.873363 -4.57768,1.237115 1.86612,17.873363 1.86612,17.873363 z"
         id="path859-07-55-0-4" />
      <path
         style="fill:#ff0000;stroke:none;stroke-width:0.264583px;stroke-linecap:butt;stroke-linejoin:miter;stroke-opacity:1"
         d="m 168.33623,47.571569 c 5.9939,6.510366 4.07793,28.878112 4.07793,28.878112 0,0 -11.55047,-16.10307 -4.07793,-28.878112 z"
         id="path865-40-3-2-9" />
      <path
         style="fill:#ffff00;stroke:none;stroke-width:0.264583px;stroke-linecap:butt;stroke-linejoin:miter;stroke-opacity:1"
         d="m 182.35617,51.779201 c 0,0 -6.87696,-9.151175 -27.39113,-6.401996 -20.51416,2.749168 18.15667,18.298173 27.39113,6.401996 z"
         id="path867-7-7-71-1-9" />
      <path
         style="fill:#ff6600;stroke:none;stroke-width:0.217428px;stroke-linecap:butt;stroke-linejoin:miter;stroke-opacity:1"
         d="m 179.42319,36.167753 c 0,0 13.87939,19.958083 22.63957,20.142939 8.76016,0.184864 -21.91007,19.292501 -22.63957,-20.142939 z"
         id="path871-2-7-6-8" />
      <path
         style="fill:#ff6600;stroke:none;stroke-width:0.217428px;stroke-linecap:butt;stroke-linejoin:miter;stroke-opacity:1"
         d="m 188.46752,87.855066 c 0,0 -5.90121,-23.582589 -14.02669,-26.861495 -8.12548,-3.278906 27.32706,-10.270529 14.02669,26.861495 z"
         id="path871-2-3-9-1-5" />
      <path
         style="fill:#ff0000;stroke:none;stroke-width:0.264583px;stroke-linecap:butt;stroke-linejoin:miter;stroke-opacity:1"
         d="M 87.037829,-5.953592 C 80.673954,5.1938811 84.723119,13.209 89.274158,11.87723 93.825195,10.54547 87.037829,-5.953592 87.037829,-5.953592 Z"
         id="path859-07-5-5-3" />
      <path
         style="fill:#ff0000;stroke:none;stroke-width:0.264583px;stroke-linecap:butt;stroke-linejoin:miter;stroke-opacity:1"
         d="m 76.259983,20.967055 c -6.12761,-6.38468 -4.675864,-28.7873509 -4.675864,-28.7873509 0,0 11.881904,15.8601142 4.675864,28.7873509 z"
         id="path865-40-1-8-1" />
      <path
         style="fill:#ffff00;stroke:none;stroke-width:0.264583px;stroke-linecap:butt;stroke-linejoin:miter;stroke-opacity:1"
         d="m 62.155809,17.051038 c 0,0 7.065238,9.006615 27.517985,5.832656 C 110.12655,19.709737 71.141607,4.9659451 62.155809,17.051038 Z"
         id="path867-7-7-3-0-2" />
      <path
         style="fill:#ff6600;stroke:none;stroke-width:0.217428px;stroke-linecap:butt;stroke-linejoin:miter;stroke-opacity:1"
         d="m 65.411868,32.598314 c 0,0 -14.290253,-19.665995 -23.052364,-19.669171 -8.762122,-0.0032 21.505317,-19.7426622 23.052364,19.669171 z"
         id="path871-2-0-6-9" />
      <path
         style="fill:#ff0000;stroke:none;stroke-width:0.264583px;stroke-linecap:butt;stroke-linejoin:miter;stroke-opacity:1"
         d="M 21.407588,9.489063 C 31.310514,1.3222416 30.366313,-7.6078413 25.638742,-7.9762406 20.911181,-8.3446381 21.407588,9.489063 21.407588,9.489063 Z"
         id="path859-07-9-2-4-7" />
      <path
         style="fill:#ff0000;stroke:none;stroke-width:0.264583px;stroke-linecap:butt;stroke-linejoin:miter;stroke-opacity:1"
         d="m 41.030342,-11.861131 c 3.465717,8.1425224 -5.834938,28.574973 -5.834938,28.574973 0,0 -5.486491,-19.0426077 5.834938,-28.574973 z"
         id="path865-40-7-0-8-4" />
      <path
         style="fill:#ffff00;stroke:none;stroke-width:0.264583px;stroke-linecap:butt;stroke-linejoin:miter;stroke-opacity:1"
         d="m 52.829693,-3.1986697 c 0,0 -3.41277,-10.9265503 -23.662102,-15.2106503 -20.249342,-4.284102 10.975156,23.324537 23.662102,15.2106503 z"
         id="path867-7-7-7-9-2-9" />
      <path
         style="fill:#ff6600;stroke:none;stroke-width:0.217428px;stroke-linecap:butt;stroke-linejoin:miter;stroke-opacity:1"
         d="m 55.297719,-18.890346 c 0,0 6.388933,23.4551569 14.580666,26.5648705 C 78.070108,10.784236 42.770164,18.509479 55.297719,-18.890346 Z"
         id="path871-2-3-1-6-3" />
      <path
         style="fill:#ff0000;stroke:none;stroke-width:0.264583px;stroke-linecap:butt;stroke-linejoin:miter;stroke-opacity:1"
         d="m 189.61524,77.082644 c -7.85042,10.155592 -4.95367,18.655405 -0.26177,17.968608 4.69189,-0.686787 0.26177,-17.968608 0.26177,-17.968608 z"
         id="path859-07-3-0" />
      <path
         style="fill:#ff0000;stroke:none;stroke-width:0.264583px;stroke-linecap:butt;stroke-linejoin:miter;stroke-opacity:1"
         d="m 175.20298,102.24552 c -5.18149,-7.173844 -0.63242,-29.15777 -0.63242,-29.15777 0,0 9.56402,17.356608 0.63242,29.15777 z"
         id="path865-40-8-2" />
      <path
         style="fill:#ffff00;stroke:none;stroke-width:0.264583px;stroke-linecap:butt;stroke-linejoin:miter;stroke-opacity:1"
         d="m 161.77937,96.408592 c 0,0 5.74589,9.900578 26.44123,9.597958 20.69535,-0.30263 -15.86408,-20.31794 -26.44123,-9.597958 z"
         id="path867-7-7-5-4" />
      <path
         style="fill:#ff6600;stroke:none;stroke-width:0.217428px;stroke-linecap:butt;stroke-linejoin:miter;stroke-opacity:1"
         d="m 162.8446,112.25741 c 0,0 -11.42046,-21.460101 -20.09722,-22.680164 -8.67675,-1.220071 24.03885,-16.564573 20.09722,22.680164 z"
         id="path871-2-37-9" />
      <path
         style="fill:#ff0000;stroke:none;stroke-width:0.264583px;stroke-linecap:butt;stroke-linejoin:miter;stroke-opacity:1"
         d="m 122.4763,83.260596 c 10.9412,-6.712309 11.2464,-15.686975 6.61582,-16.708396 -4.63058,-1.02141 -6.61582,16.708396 -6.61582,16.708396 z"
         id="path859-07-9-8-8" />
      <path
         style="fill:#ff0000;stroke:none;stroke-width:0.264583px;stroke-linecap:butt;stroke-linejoin:miter;stroke-opacity:1"
         d="m 144.8741,64.842624 c 2.30126,8.544938 -9.74701,27.487656 -9.74701,27.487656 0,0 -2.7886,-19.620052 9.74701,-27.487656 z"
         id="path865-40-7-7-9" />
      <path
         style="fill:#ffff00;stroke:none;stroke-width:0.264583px;stroke-linecap:butt;stroke-linejoin:miter;stroke-opacity:1"
         d="m 155.35602,75.059882 c 0,0 -1.86218,-11.294647 -21.32026,-18.349545 -19.4581,-7.054901 7.62936,24.622762 21.32026,18.349545 z"
         id="path867-7-7-7-3-5" />
      <path
         style="fill:#ff6600;stroke:none;stroke-width:0.217428px;stroke-linecap:butt;stroke-linejoin:miter;stroke-opacity:1"
         d="m 159.97945,59.863045 c 0,0 3.06946,24.115169 10.74991,28.332452 7.68044,4.217283 -28.35031,6.965033 -10.74991,-28.332452 z"
         id="path871-2-3-4-8" />
      <path
         style="fill:#ff0000;stroke:none;stroke-width:0.264583px;stroke-linecap:butt;stroke-linejoin:miter;stroke-opacity:1"
         d="m 115.64466,53.85765 c -7.85041,10.155592 -4.95366,18.655405 -0.26177,17.968618 4.6919,-0.686797 0.26177,-17.968618 0.26177,-17.968618 z"
         id="path859-07-5-6-6" />
      <path
         style="fill:#ff0000;stroke:none;stroke-width:0.264583px;stroke-linecap:butt;stroke-linejoin:miter;stroke-opacity:1"
         d="m 101.23241,79.020524 c -5.181493,-7.173832 -0.63243,-29.157768 -0.63243,-29.157768 0,0 9.56402,17.356618 0.63243,29.157768 z"
         id="path865-40-1-5-6" />
      <path
         style="fill:#ffff00;stroke:none;stroke-width:0.264583px;stroke-linecap:butt;stroke-linejoin:miter;stroke-opacity:1"
         d="m 87.808791,73.183607 c 0,0 5.745889,9.900578 26.441229,9.59795 20.69536,-0.302617 -15.86408,-20.317931 -26.441229,-9.59795 z"
         id="path867-7-7-3-07-3" />
      <path
         style="fill:#ff6600;stroke:none;stroke-width:0.217428px;stroke-linecap:butt;stroke-linejoin:miter;stroke-opacity:1"
         d="m 88.874024,89.03242 c 0,0 -11.420452,-21.460094 -20.097205,-22.680165 -8.676765,-1.220063 24.038848,-16.564573 20.097205,22.680165 z"
         id="path871-2-0-4-0" />
      <path
         style="fill:#ff0000;stroke:none;stroke-width:0.264583px;stroke-linecap:butt;stroke-linejoin:miter;stroke-opacity:1"
         d="M 48.505726,60.035612 C 59.446932,53.323304 59.75213,44.348628 55.121542,43.327216 50.490968,42.305797 48.505726,60.035612 48.505726,60.035612 Z"
         id="path859-07-9-2-75-1" />
      <path
         style="fill:#ff0000;stroke:none;stroke-width:0.264583px;stroke-linecap:butt;stroke-linejoin:miter;stroke-opacity:1"
         d="m 70.903525,41.61763 c 2.301258,8.544948 -9.747008,27.487656 -9.747008,27.487656 0,0 -2.788599,-19.620042 9.747008,-27.487656 z"
         id="path865-40-7-0-3-7" />
      <path
         style="fill:#ffff00;stroke:none;stroke-width:0.264583px;stroke-linecap:butt;stroke-linejoin:miter;stroke-opacity:1"
         d="m 81.385446,51.834888 c 0,0 -1.862166,-11.294634 -21.320262,-18.349535 -19.458094,-7.05491 7.629376,24.622765 21.320262,18.349535 z"
         id="path867-7-7-7-9-4-4" />
      <path
         style="fill:#ff6600;stroke:none;stroke-width:0.217428px;stroke-linecap:butt;stroke-linejoin:miter;stroke-opacity:1"
         d="m 86.008879,36.638061 c 0,0 3.069459,24.115159 10.7499,28.332452 7.680441,4.217282 -28.350302,6.965033 -10.7499,-28.332452 z"
         id="path871-2-3-1-2-8" />
      <path
         style="fill:#ff0000;stroke:none;stroke-width:0.264583px;stroke-linecap:butt;stroke-linejoin:miter;stroke-opacity:1"
         d="m 22.151513,98.723191 c 7.306968,-10.553355 3.968407,-18.889536 -0.68101,-17.957606 -4.649419,0.931928 0.68101,17.957606 0.68101,17.957606 z"
         id="path859-07-55-4-8" />
      <path
         style="fill:#ff0000;stroke:none;stroke-width:0.264583px;stroke-linecap:butt;stroke-linejoin:miter;stroke-opacity:1"
         d="m 35.224184,72.839056 c 5.550615,6.892202 2.160828,29.084464 2.160828,29.084464 0,0 -10.461182,-16.831104 -2.160828,-29.084464 z"
         id="path865-40-3-3-5" />
      <path
         style="fill:#ffff00;stroke:none;stroke-width:0.264583px;stroke-linecap:butt;stroke-linejoin:miter;stroke-opacity:1"
         d="m 48.93546,77.963899 c 0,0 -6.257249,-9.585585 -26.908234,-8.197951 -20.6509959,1.387641 16.907888,19.45793 26.908234,8.197951 z"
         id="path867-7-7-71-8-1" />
      <path
         style="fill:#ff6600;stroke:none;stroke-width:0.217428px;stroke-linecap:butt;stroke-linejoin:miter;stroke-opacity:1"
         d="m 47.040453,62.192763 c 0,0 12.530277,20.831581 21.259087,21.594893 8.7288,0.763309 -23.136979,17.802564 -21.259087,-21.594893 z"
         id="path871-2-7-8-8" />
      <path
         style="fill:#ff0000;stroke:none;stroke-width:0.264583px;stroke-linecap:butt;stroke-linejoin:miter;stroke-opacity:1"
         d="m 88.874024,89.03242 c -10.574102,7.276914 -10.408168,16.25524 -5.73038,17.03239 4.677768,0.77714 5.73038,-17.03239 5.73038,-17.03239 z"
         id="path859-07-9-7-3-2" />
      <path
         style="fill:#ff0000;stroke:none;stroke-width:0.264583px;stroke-linecap:butt;stroke-linejoin:miter;stroke-opacity:1"
         d="m 67.473044,108.59977 c -2.746259,-8.41247 8.291912,-27.961035 8.291912,-27.961035 0,0 3.813801,19.446785 -8.291912,27.961035 z"
         id="path865-40-7-3-9-0" />
      <path
         style="fill:#ffff00;stroke:none;stroke-width:0.264583px;stroke-linecap:butt;stroke-linejoin:miter;stroke-opacity:1"
         d="m 56.469669,98.946333 c 0,0 2.451996,11.181427 22.253323,17.206077 19.801327,6.02465 -8.91029,-24.188731 -22.253323,-17.206077 z"
         id="path867-7-7-7-1-9-5" />
      <path
         style="fill:#ff6600;stroke:none;stroke-width:0.217428px;stroke-linecap:butt;stroke-linejoin:miter;stroke-opacity:1"
         d="m 52.649648,114.36474 c 0,0 -4.330035,-23.92098 -12.221095,-27.72964 -7.891062,-3.80865 27.94598,-8.442371 12.221095,27.72964 z"
         id="path871-2-3-9-4-5" />
      <path
         style="fill:#ff0000;stroke:none;stroke-width:0.264583px;stroke-linecap:butt;stroke-linejoin:miter;stroke-opacity:1"
         d="M 7.3458296,70.185595 C -3.7322066,76.669591 -4.2234333,85.636007 0.38497839,86.753217 4.9933805,87.870424 7.3458296,70.185595 7.3458296,70.185595 Z"
         id="path859-07-9-2-7-9-3" />
      <path
         style="fill:#ff0000;stroke:none;stroke-width:0.264583px;stroke-linecap:butt;stroke-linejoin:miter;stroke-opacity:1"
         d="m -15.429059,88.135182 c -2.12358,-8.590824 10.3148838,-27.279638 10.3148838,-27.279638 0,0 2.3811662,19.673654 -10.3148838,27.279638 z"
         id="path865-40-7-0-0-9-8" />
      <path
         style="fill:#ffff00;stroke:none;stroke-width:0.264583px;stroke-linecap:butt;stroke-linejoin:miter;stroke-opacity:1"
         d="m -25.696866,77.702769 c 0,0 1.627564,11.330828 20.9351899,18.787685 C 14.545946,103.94732 -11.878845,71.714781 -25.696866,77.702769 Z"
         id="path867-7-7-7-9-7-3-4" />
      <path
         style="fill:#ff0000;stroke:none;stroke-width:0.264583px;stroke-linecap:butt;stroke-linejoin:miter;stroke-opacity:1"
         d="m 34.496584,32.052804 c -7.524225,10.399567 -4.35924,18.80319 0.308503,17.96787 4.667742,-0.835321 -0.308503,-17.96787 -0.308503,-17.96787 z"
         id="path859-07-55-0-4-9" />
      <path
         style="fill:#ff0000;stroke:none;stroke-width:0.264583px;stroke-linecap:butt;stroke-linejoin:miter;stroke-opacity:1"
         d="M 20.890003,57.6603 C 15.483495,50.654487 19.33272,28.537288 19.33272,28.537288 c 0,0 10.109931,17.044405 1.557283,29.123012 z"
         id="path865-40-3-2-9-4" />
      <path
         style="fill:#ffff00;stroke:none;stroke-width:0.264583px;stroke-linecap:butt;stroke-linejoin:miter;stroke-opacity:1"
         d="m 7.287942,52.252251 c 0,0 6.057139,9.713274 26.732461,8.754139 C 54.695729,60.047265 17.519621,41.202047 7.287942,52.252251 Z"
         id="path867-7-7-71-1-9-3" />
      <path
         style="fill:#ff6600;stroke:none;stroke-width:0.217428px;stroke-linecap:butt;stroke-linejoin:miter;stroke-opacity:1"
         d="m 8.8555184,68.059287 c 0,0 -12.0956281,-21.086924 -20.8067404,-22.031061 -8.711095,-0.944142 23.501156,-17.318985 20.8067404,22.031061 z"
         id="path871-2-7-6-8-2" />
      <path
         style="fill:#ff6600;stroke:none;stroke-width:0.217428px;stroke-linecap:butt;stroke-linejoin:miter;stroke-opacity:1"
         d="m 4.3293437,15.782217 c 0,0 3.8330884,24.00563 11.6434783,27.977088 7.81039,3.97146 -28.115034,7.861086 -11.6434783,-27.977088 z"
         id="path871-2-3-9-1-5-2" />
      <path
         style="fill:#ff0000;stroke:none;stroke-width:0.264583px;stroke-linecap:butt;stroke-linejoin:miter;stroke-opacity:1"
         d="m 97.238386,118.03659 c 7.306964,-10.55335 3.968404,-18.889534 -0.681009,-17.9576 -4.649414,0.93192 0.681009,17.9576 0.681009,17.9576 z"
         id="path859-07-5-5-3-1" />
      <path
         style="fill:#ff0000;stroke:none;stroke-width:0.264583px;stroke-linecap:butt;stroke-linejoin:miter;stroke-opacity:1"
         d="m 110.31106,92.152458 c 5.55061,6.892201 2.16083,29.084462 2.16083,29.084462 0,0 -10.46119,-16.83111 -2.16083,-29.084462 z"
         id="path865-40-1-8-1-4" />
      <path
         style="fill:#ffff00;stroke:none;stroke-width:0.264583px;stroke-linecap:butt;stroke-linejoin:miter;stroke-opacity:1"
         d="m 124.02233,97.277299 c 0,0 -6.25724,-9.585593 -26.908231,-8.19795 -20.650999,1.38764 16.907891,19.457931 26.908231,8.19795 z"
         id="path867-7-7-3-0-2-2" />
      <path
         style="fill:#ff6600;stroke:none;stroke-width:0.217428px;stroke-linecap:butt;stroke-linejoin:miter;stroke-opacity:1"
         d="m 122.12733,81.506164 c 0,0 12.53028,20.831586 21.25908,21.594896 8.72881,0.7633 -23.13698,17.80256 -21.25908,-21.594896 z"
         id="path871-2-0-6-9-5" />
      <path
         style="fill:#ff0000;stroke:none;stroke-width:0.264583px;stroke-linecap:butt;stroke-linejoin:miter;stroke-opacity:1"
         d="m 163.96089,108.34582 c -10.57409,7.27692 -10.40816,16.25524 -5.73038,17.03239 4.67778,0.77714 5.73038,-17.03239 5.73038,-17.03239 z"
         id="path859-07-9-2-4-7-2" />
      <path
         style="fill:#ff0000;stroke:none;stroke-width:0.264583px;stroke-linecap:butt;stroke-linejoin:miter;stroke-opacity:1"
         d="m 142.55991,127.91317 c -2.74625,-8.41248 8.29193,-27.961033 8.29193,-27.961033 0,0 3.81379,19.446783 -8.29193,27.961033 z"
         id="path865-40-7-0-8-4-1" />
      <path
         style="fill:#ffff00;stroke:none;stroke-width:0.264583px;stroke-linecap:butt;stroke-linejoin:miter;stroke-opacity:1"
         d="m 131.55655,118.25974 c 0,0 2.45199,11.18142 22.25331,17.20607 19.80134,6.02466 -8.91029,-24.18873 -22.25331,-17.20607 z"
         id="path867-7-7-7-9-2-9-9" />
      <path
         style="fill:#ff6600;stroke:none;stroke-width:0.217428px;stroke-linecap:butt;stroke-linejoin:miter;stroke-opacity:1"
         d="m 127.73652,133.67814 c 0,0 -4.33003,-23.92099 -12.2211,-27.72964 -7.89106,-3.80865 27.94599,-8.442368 12.2211,27.72964 z"
         id="path871-2-3-1-6-3-9" />
      <path
         style="fill:#008000;stroke:none;stroke-width:0.264583px;stroke-linecap:butt;stroke-linejoin:miter;stroke-opacity:1"
         d="M 174.32763,18.437475 C 173.51874,5.6269025 165.73127,1.1555324 162.6608,4.7690945 159.59034,8.3826479 174.32763,18.437475 174.32763,18.437475 Z"
         id="path859-07-9-2-6" />
      <path
         style="fill:#008000;stroke:none;stroke-width:0.264583px;stroke-linecap:butt;stroke-linejoin:miter;stroke-opacity:1"
         d="m 168.53883,-9.9768343 c 8.62801,1.9670208 19.72585,21.4817673 19.72585,21.4817673 0,0 -18.64256,-6.721445 -19.72585,-21.4817673 z"
         id="path865-40-7-0-87" />
      <path
         style="fill:#ff00ff;stroke:none;stroke-width:0.264583px;stroke-linecap:butt;stroke-linejoin:miter;stroke-opacity:1"
         d="m 182.47452,-14.455621 c 0,0 -10.85218,-3.642352 -26.19589,10.2486448 -15.34371,13.8910024 25.32946,4.78607996 26.19589,-10.2486448 z"
         id="path867-7-7-7-9-9" />
      <path
         style="fill:#008000;stroke:none;stroke-width:0.264583px;stroke-linecap:butt;stroke-linejoin:miter;stroke-opacity:1"
         d="m 196.17512,59.837479 c -5.90442,-11.397485 -14.8336,-12.35018 -16.18684,-7.805478 -1.35324,4.544702 16.18684,7.805478 16.18684,7.805478 z"
         id="path859-07-55-7" />
      <path
         style="fill:#008000;stroke:none;stroke-width:0.264583px;stroke-linecap:butt;stroke-linejoin:miter;stroke-opacity:1"
         d="m 179.42319,36.167753 c 8.68885,-1.677995 26.71176,11.707136 26.71176,11.707136 0,0 -19.77023,1.364049 -26.71176,-11.707136 z"
         id="path865-40-3-0" />
      <path
         style="fill:#ff00ff;stroke:none;stroke-width:0.264583px;stroke-linecap:butt;stroke-linejoin:miter;stroke-opacity:1"
         d="m 190.37092,26.451267 c 0,0 -11.39965,1.041439 -19.84168,19.939082 -8.44205,18.897643 25.10955,-5.830791 19.84168,-19.939082 z"
         id="path867-7-7-71-7" />
      <path
         style="fill:#0000ff;stroke:none;stroke-width:0.217428px;stroke-linecap:butt;stroke-linejoin:miter;stroke-opacity:1"
         d="m 175.54777,20.742161 c 0,0 24.27388,-1.31946 29.03495,-8.675203 4.76107,-7.3557346 4.89895,28.779365 -29.03495,8.675203 z"
         id="path871-2-7-0" />
      <path
         style="fill:#008000;stroke:none;stroke-width:0.264583px;stroke-linecap:butt;stroke-linejoin:miter;stroke-opacity:1"
         d="M 226.1207,24.413613 C 217.4014,22.901827 205.29532,3.9960076 205.29532,3.9960076 c 0,0 18.96943,5.7344189 20.82538,20.4176054 z"
         id="path865-40-7-3-5" />
      <path
         style="fill:#0000ff;stroke:none;stroke-width:0.217428px;stroke-linecap:butt;stroke-linejoin:miter;stroke-opacity:1"
         d="m 224.27495,40.211116 c 0,0 -23.16468,-7.372951 -30.22453,-2.183216 -7.05983,5.189735 5.62352,-28.6465946 30.22453,2.183216 z"
         id="path871-2-3-9-2" />
      <path
         style="fill:#008000;stroke:none;stroke-width:0.264583px;stroke-linecap:butt;stroke-linejoin:miter;stroke-opacity:1"
         d="m 164.02663,59.559843 c 0.54308,12.82459 8.23616,17.45648 11.3809,13.907356 3.14474,-3.549104 -11.3809,-13.907356 -11.3809,-13.907356 z"
         id="path859-07-9-2-7-98" />
      <path
         style="fill:#008000;stroke:none;stroke-width:0.264583px;stroke-linecap:butt;stroke-linejoin:miter;stroke-opacity:1"
         d="m 169.225,88.088079 c -8.58537,-2.145506 -19.27616,-21.886173 -19.27616,-21.886173 0,0 18.49916,7.106555 19.27616,21.886173 z"
         id="path865-40-7-0-0-0" />
      <path
         style="fill:#ff00ff;stroke:none;stroke-width:0.264583px;stroke-linecap:butt;stroke-linejoin:miter;stroke-opacity:1"
         d="m 155.19944,92.27694 c 0,0 10.77431,3.866593 26.40276,-9.703255 15.62845,-13.569854 -25.22477,-5.310279 -26.40276,9.703255 z"
         id="path867-7-7-7-9-7-8" />
      <path
         style="fill:#008000;stroke:none;stroke-width:0.264583px;stroke-linecap:butt;stroke-linejoin:miter;stroke-opacity:1"
         d="m 143.04228,17.715724 c 5.66682,11.51747 14.57433,12.655108 16.02152,8.13944 1.44718,-4.515662 -16.02152,-8.13944 -16.02152,-8.13944 z"
         id="path859-07-55-0-7" />
      <path
         style="fill:#008000;stroke:none;stroke-width:0.264583px;stroke-linecap:butt;stroke-linejoin:miter;stroke-opacity:1"
         d="m 159.29981,41.727722 c -8.72178,1.497463 -26.46326,-12.258507 -26.46326,-12.258507 0,0 19.79426,-0.953805 26.46326,12.258507 z"
         id="path865-40-3-2-2" />
      <path
         style="fill:#ff00ff;stroke:none;stroke-width:0.264583px;stroke-linecap:butt;stroke-linejoin:miter;stroke-opacity:1"
         d="m 148.15295,51.215108 c 0,0 11.4188,-0.804837 20.25088,-19.52336 8.83208,-18.718536 -25.22506,5.308881 -20.25088,19.52336 z"
         id="path867-7-7-71-1-96" />
      <path
         style="fill:#0000ff;stroke:none;stroke-width:0.217428px;stroke-linecap:butt;stroke-linejoin:miter;stroke-opacity:1"
         d="m 162.85455,57.230351 c 0,0 -24.29603,0.815851 -29.20861,8.07129 -4.91257,7.255431 -4.30113,-28.874762 29.20861,-8.07129 z"
         id="path871-2-7-6-3" />
      <path
         style="fill:#0000ff;stroke:none;stroke-width:0.217428px;stroke-linecap:butt;stroke-linejoin:miter;stroke-opacity:1"
         d="m 114.54154,36.755198 c 0,0 23.00681,7.851693 30.17275,2.809475 7.16593,-5.042239 -6.21632,28.523826 -30.17275,-2.809475 z"
         id="path871-2-3-9-1-1" />
      <path
         style="fill:#008000;stroke:none;stroke-width:0.264583px;stroke-linecap:butt;stroke-linejoin:miter;stroke-opacity:1"
         d="m 78.706354,62.648257 c 8.852092,-9.295456 6.843792,-18.047864 2.10616,-17.846667 -4.73762,0.201195 -2.10616,17.846667 -2.10616,17.846667 z"
         id="path859-07-9-2-2" />
      <path
         style="fill:#008000;stroke:none;stroke-width:0.264583px;stroke-linecap:butt;stroke-linejoin:miter;stroke-opacity:1"
         d="m 95.627156,39.098954 c 4.417174,7.668142 -2.36607,29.068489 -2.36607,29.068489 0,0 -7.73052,-18.247235 2.36607,-29.068489 z"
         id="path865-40-7-0-85" />
      <path
         style="fill:#008000;stroke:none;stroke-width:0.264583px;stroke-linecap:butt;stroke-linejoin:miter;stroke-opacity:1"
         d="m 163.55473,70.728836 c -4.98113,11.83019 0,19.301888 4.35849,17.433962 4.35849,-1.867924 -4.35849,-17.433962 -4.35849,-17.433962 z"
         id="path859-07-5-57" />
      <path
         style="fill:#008000;stroke:none;stroke-width:0.264583px;stroke-linecap:butt;stroke-linejoin:miter;stroke-opacity:1"
         d="m 156.08303,98.747705 c -6.84905,-5.603774 -8.09434,-28.018868 -8.09434,-28.018868 0,0 13.69812,14.320754 8.09434,28.018868 z"
         id="path865-40-1-0" />
      <path
         style="fill:#ff00ff;stroke:none;stroke-width:0.264583px;stroke-linecap:butt;stroke-linejoin:miter;stroke-opacity:1"
         d="m 141.61102,96.551339 c 0,0 8.09434,8.094341 28.01886,2.490566 19.92453,-5.603773 -20.54717,-15.566038 -28.01886,-2.490566 z"
         id="path867-7-7-3-2" />
      <path
         style="fill:#0000ff;stroke:none;stroke-width:0.217428px;stroke-linecap:butt;stroke-linejoin:miter;stroke-opacity:1"
         d="m 146.70804,111.59595 c 0,0 -16.5455,-17.81037 -25.24476,-16.762757 -8.69927,1.047614 18.98255,-22.17914 25.24476,16.762757 z"
         id="path871-2-0-9" />
      <path
         style="fill:#008000;stroke:none;stroke-width:0.264583px;stroke-linecap:butt;stroke-linejoin:miter;stroke-opacity:1"
         d="m 100.25002,93.930518 c 8.85209,-9.295456 6.84379,-18.047864 2.10616,-17.846667 -4.737617,0.201195 -2.10616,17.846667 -2.10616,17.846667 z"
         id="path859-07-9-2-0" />
      <path
         style="fill:#008000;stroke:none;stroke-width:0.264583px;stroke-linecap:butt;stroke-linejoin:miter;stroke-opacity:1"
         d="m 117.17082,70.381216 c 4.41717,7.668141 -2.36607,29.068488 -2.36607,29.068488 0,0 -7.73052,-18.247235 2.36607,-29.068488 z"
         id="path865-40-7-0-7" />
      <path
         style="fill:#ff00ff;stroke:none;stroke-width:0.264583px;stroke-linecap:butt;stroke-linejoin:miter;stroke-opacity:1"
         d="m 129.92384,77.566166 c 0,0 -4.69847,-10.438436 -25.31543,-12.263287 -20.616957,-1.824856 13.69307,21.840053 25.31543,12.263287 z"
         id="path867-7-7-7-9-74" />
      <path
         style="fill:#0000ff;stroke:none;stroke-width:0.217428px;stroke-linecap:butt;stroke-linejoin:miter;stroke-opacity:1"
         d="m 130.49228,61.691761 c 0,0 9.15561,22.519715 17.66114,24.624628 8.50553,2.104909 -25.61324,14.007621 -17.66114,-24.624628 z"
         id="path871-2-3-1-5" />
      <path
         style="fill:#0000ff;stroke:none;stroke-width:0.217428px;stroke-linecap:butt;stroke-linejoin:miter;stroke-opacity:1"
         d="m 99.387442,96.391472 c 0,0 17.456848,16.918068 26.089198,15.415638 8.63234,-1.50243 -17.79316,23.14421 -26.089198,-15.415638 z"
         id="path871-2-7-2" />
      <path
         style="fill:#008000;stroke:none;stroke-width:0.264583px;stroke-linecap:butt;stroke-linejoin:miter;stroke-opacity:1"
         d="m 146.70804,111.59595 c -8.35238,9.74693 -5.88779,18.38196 -1.16723,17.93256 4.72054,-0.44939 1.16723,-17.93256 1.16723,-17.93256 z"
         id="path859-07-9-7-7" />
      <path
         style="fill:#008000;stroke:none;stroke-width:0.264583px;stroke-linecap:butt;stroke-linejoin:miter;stroke-opacity:1"
         d="m 131.04565,136.0003 c -4.81327,-7.42591 0.83822,-29.15257 0.83822,-29.15257 0,0 8.67692,17.81666 -0.83822,29.15257 z"
         id="path865-40-7-3-6" />
      <path
         style="fill:#ff00ff;stroke:none;stroke-width:0.264583px;stroke-linecap:butt;stroke-linejoin:miter;stroke-opacity:1"
         d="m 117.93334,129.49411 c 0,0 5.23949,10.17764 25.92378,10.91866 20.68429,0.74102 -14.81969,-21.09181 -25.92378,-10.91866 z"
         id="path867-7-7-7-1-4" />
      <path
         style="fill:#0000ff;stroke:none;stroke-width:0.217428px;stroke-linecap:butt;stroke-linejoin:miter;stroke-opacity:1"
         d="m 118.19827,145.37648 c 0,0 -10.32413,-22.00852 -18.928351,-23.66444 -8.604222,-1.65591 24.843311,-15.33171 18.928351,23.66444 z"
         id="path871-2-3-9-3" />
      <path
         style="fill:#008000;stroke:none;stroke-width:0.264583px;stroke-linecap:butt;stroke-linejoin:miter;stroke-opacity:1"
         d="m 162.23593,137.48202 c 4.3538,-12.07516 -1.01235,-19.27532 -5.26687,-17.18137 -4.25452,2.09395 5.26687,17.18137 5.26687,17.18137 z"
         id="path859-07-5-5-6" />
      <path
         style="fill:#008000;stroke:none;stroke-width:0.264583px;stroke-linecap:butt;stroke-linejoin:miter;stroke-opacity:1"
         d="m 168.22781,109.10984 c 7.13353,5.23684 9.55274,27.55577 9.55274,27.55577 0,0 -14.43037,-13.5826 -9.55274,-27.55577 z"
         id="path865-40-1-8-7" />
      <path
         style="fill:#008000;stroke:none;stroke-width:0.264583px;stroke-linecap:butt;stroke-linejoin:miter;stroke-opacity:1"
         d="m 113.18178,128.15896 c 8.8521,-9.29546 6.8438,-18.04787 2.10616,-17.84667 -4.73762,0.2012 -2.10616,17.84667 -2.10616,17.84667 z"
         id="path859-07-9-2-2-7" />
      <path
         style="fill:#008000;stroke:none;stroke-width:0.264583px;stroke-linecap:butt;stroke-linejoin:miter;stroke-opacity:1"
         d="m 130.10259,104.60965 c 4.41717,7.66815 -2.36607,29.06849 -2.36607,29.06849 0,0 -7.73052,-18.24723 2.36607,-29.06849 z"
         id="path865-40-7-0-85-6" />
      <path
         style="fill:#008000;stroke:none;stroke-width:0.264583px;stroke-linecap:butt;stroke-linejoin:miter;stroke-opacity:1"
         d="m 63.163677,106.80365 c 4.353802,-12.075157 -1.01235,-19.27532 -5.266871,-17.18137 -4.254522,2.093949 5.266871,17.18137 5.266871,17.18137 z"
         id="path859-07-55-6" />
      <path
         style="fill:#008000;stroke:none;stroke-width:0.264583px;stroke-linecap:butt;stroke-linejoin:miter;stroke-opacity:1"
         d="m 69.155553,78.43147 c 7.133532,5.23684 9.55274,27.55577 9.55274,27.55577 0,0 -14.430365,-13.582602 -9.55274,-27.55577 z"
         id="path865-40-3-4" />
      <path
         style="fill:#ff00ff;stroke:none;stroke-width:0.264583px;stroke-linecap:butt;stroke-linejoin:miter;stroke-opacity:1"
         d="m 83.72284,79.865782 c 0,0 -8.507733,-7.658666 -28.110922,-1.017599 -19.603198,6.641066 21.335301,14.466951 28.110922,1.017599 z"
         id="path867-7-7-71-9" />
      <path
         style="fill:#0000ff;stroke:none;stroke-width:0.217428px;stroke-linecap:butt;stroke-linejoin:miter;stroke-opacity:1"
         d="m 96.654596,114.09422 c 0,0 -10.32412,-22.008522 -18.928346,-23.664438 -8.604222,-1.655912 24.84331,-15.331711 18.928346,23.664438 z"
         id="path871-2-3-9-7" />
      <path
         style="fill:#008000;stroke:none;stroke-width:0.264583px;stroke-linecap:butt;stroke-linejoin:miter;stroke-opacity:1"
         d="M 41.52995,83.021632 C 32.487018,92.131537 34.3134,100.92371 39.054183,100.82079 43.794956,100.71788 41.52995,83.021632 41.52995,83.021632 Z"
         id="path859-07-9-2-7-7" />
      <path
         style="fill:#008000;stroke:none;stroke-width:0.264583px;stroke-linecap:butt;stroke-linejoin:miter;stroke-opacity:1"
         d="m 24.124481,106.21501 c -4.257218,-7.758085 2.968312,-29.013177 2.968312,-29.013177 0,0 7.350492,18.403608 -2.968312,29.013177 z"
         id="path865-40-7-0-0-2" />
      <path
         style="fill:#ff00ff;stroke:none;stroke-width:0.264583px;stroke-linecap:butt;stroke-linejoin:miter;stroke-opacity:1"
         d="m 11.523185,98.767164 c 0,0 4.481014,10.533616 25.055703,12.785576 20.574687,2.25197 -13.237261,-22.119288 -25.055703,-12.785576 z"
         id="path867-7-7-7-9-7-1" />
      <path
         style="fill:#008000;stroke:none;stroke-width:0.264583px;stroke-linecap:butt;stroke-linejoin:miter;stroke-opacity:1"
         d="M 57.984871,39.198017 C 53.38162,51.1803 58.597319,58.490186 62.894345,56.484906 67.191371,54.479627 57.984871,39.198017 57.984871,39.198017 Z"
         id="path859-07-55-0-8" />
      <path
         style="fill:#008000;stroke:none;stroke-width:0.264583px;stroke-linecap:butt;stroke-linejoin:miter;stroke-opacity:1"
         d="m 51.405971,67.439853 c -7.02341,-5.383631 -8.979303,-27.747926 -8.979303,-27.747926 0,0 14.14562,13.878903 8.979303,27.747926 z"
         id="path865-40-3-2-91" />
      <path
         style="fill:#ff00ff;stroke:none;stroke-width:0.264583px;stroke-linecap:butt;stroke-linejoin:miter;stroke-opacity:1"
         d="m 36.871558,65.703789 c 0,0 8.347096,7.833432 28.083777,1.600276 19.736691,-6.233156 -21.030734,-14.90624 -28.083777,-1.600276 z"
         id="path867-7-7-71-1-5" />
      <path
         style="fill:#0000ff;stroke:none;stroke-width:0.217428px;stroke-linecap:butt;stroke-linejoin:miter;stroke-opacity:1"
         d="m 42.443375,80.579093 c 0,0 -17.102288,-17.276409 -25.763941,-15.953297 -8.661638,1.323114 18.26925,-22.770287 25.763941,15.953297 z"
         id="path871-2-7-6-6" />
      <path
         style="fill:#0000ff;stroke:none;stroke-width:0.217428px;stroke-linecap:butt;stroke-linejoin:miter;stroke-opacity:1"
         d="m 24.652323,31.214563 c 0,0 9.86555,22.217867 18.433585,24.05184 8.568036,1.833969 -25.155885,14.813275 -18.433585,-24.05184 z"
         id="path871-2-3-9-1-0" />
      <path
         style="fill:#008000;stroke:none;stroke-width:0.264583px;stroke-linecap:butt;stroke-linejoin:miter;stroke-opacity:1"
         d="M 67.369142,44.39432 C 67.170412,57.228866 74.583056,62.297458 77.92758,58.935944 81.272101,55.574436 67.369142,44.39432 67.369142,44.39432 Z"
         id="path859-07-9-2-61" />
      <path
         style="fill:#008000;stroke:none;stroke-width:0.264583px;stroke-linecap:butt;stroke-linejoin:miter;stroke-opacity:1"
         d="M 70.91071,73.175226 C 62.463626,70.537318 52.931118,50.212004 52.931118,50.212004 c 0,0 18.057719,8.163413 17.979592,22.963222 z"
         id="path865-40-7-0-4" />
      <path
         style="fill:#008000;stroke:none;stroke-width:0.264583px;stroke-linecap:butt;stroke-linejoin:miter;stroke-opacity:1"
         d="M 48.837223,1.4077923 C 53.829201,13.23341 62.656109,14.883742 64.361752,10.459224 66.067396,6.034706 48.837223,1.4077923 48.837223,1.4077923 Z"
         id="path859-07-55-8" />
      <path
         style="fill:#008000;stroke:none;stroke-width:0.264583px;stroke-linecap:butt;stroke-linejoin:miter;stroke-opacity:1"
         d="M 63.680401,26.318901 C 54.886675,27.310003 37.969522,12.552053 37.969522,12.552053 c 0,0 19.816299,0.191331 25.710879,13.766848 z"
         id="path865-40-3-8" />
      <path
         style="fill:#ff00ff;stroke:none;stroke-width:0.264583px;stroke-linecap:butt;stroke-linejoin:miter;stroke-opacity:1"
         d="m 52.004054,35.146484 c 0,0 11.446223,-0.143812 21.344943,-18.320836 9.898723,-18.1770309 -25.489628,3.842726 -21.344943,18.320836 z"
         id="path867-7-7-71-15" />
      <path
         style="fill:#0000ff;stroke:none;stroke-width:0.217428px;stroke-linecap:butt;stroke-linejoin:miter;stroke-opacity:1"
         d="m 19.284139,18.768949 c 0,0 22.514788,9.167712 29.960056,4.547894 C 56.689454,18.69702 41.3904,51.433911 19.284139,18.768949 Z"
         id="path871-2-3-9-5" />
      <path
         style="fill:#008000;stroke:none;stroke-width:0.264583px;stroke-linecap:butt;stroke-linejoin:miter;stroke-opacity:1"
         d="M 80.864827,4.2069397 C 81.329638,-8.6207269 74.023695,-13.841928 70.610183,-10.550492 67.196685,-7.2590556 80.864827,4.2069397 80.864827,4.2069397 Z"
         id="path859-07-9-2-7-2" />
      <path
         style="fill:#008000;stroke:none;stroke-width:0.264583px;stroke-linecap:butt;stroke-linejoin:miter;stroke-opacity:1"
         d="m 77.920803,-24.641214 c 8.390574,2.812499 17.499565,23.3311093 17.499565,23.3311093 0,0 -17.884564,-8.536094 -17.499565,-23.3311093 z"
         id="path865-40-7-0-0-3" />
      <path
         style="fill:#ff00ff;stroke:none;stroke-width:0.264583px;stroke-linecap:butt;stroke-linejoin:miter;stroke-opacity:1"
         d="m 92.231793,-27.716715 c 0,0 -10.437739,-4.700029 -27.082691,7.601787 -16.644958,12.301808 24.730367,7.273033 27.082691,-7.601787 z"
         id="path867-7-7-7-9-7-10" />
      <path
         style="fill:#008000;stroke:none;stroke-width:0.264583px;stroke-linecap:butt;stroke-linejoin:miter;stroke-opacity:1"
         d="M 98.501408,47.568497 C 93.755716,35.641912 84.964924,33.808901 83.167902,38.1971 c -1.79702,4.388198 15.333506,9.371397 15.333506,9.371397 z"
         id="path859-07-55-0-3" />
      <path
         style="fill:#008000;stroke:none;stroke-width:0.264583px;stroke-linecap:butt;stroke-linejoin:miter;stroke-opacity:1"
         d="m 84.17797,22.354961 c 8.81238,-0.808543 25.41989,14.297015 25.41989,14.297015 0,0 -19.808079,-0.60219 -25.41989,-14.297015 z"
         id="path865-40-3-2-3" />
      <path
         style="fill:#ff00ff;stroke:none;stroke-width:0.264583px;stroke-linecap:butt;stroke-linejoin:miter;stroke-opacity:1"
         d="m 96.034845,13.771396 c 0,0 -11.446742,-0.09356 -21.720243,17.874296 -10.273513,17.967871 25.563831,-3.313357 21.720243,-17.874296 z"
         id="path867-7-7-71-1-8" />
      <path
         style="fill:#0000ff;stroke:none;stroke-width:0.217428px;stroke-linecap:butt;stroke-linejoin:miter;stroke-opacity:1"
         d="m 81.850534,6.6212156 c 0,0 24.285136,1.0929265 29.751836,-5.7547087 5.46668,-6.8476278 2.02236,29.1232121 -29.751836,5.7547087 z"
         id="path871-2-7-6-2" />
      <path
         style="fill:#0000ff;stroke:none;stroke-width:0.217428px;stroke-linecap:butt;stroke-linejoin:miter;stroke-opacity:1"
         d="m 128.40813,30.823874 c 0,0 -22.31985,-9.632601 -29.859309,-5.168156 -7.539456,4.464448 8.435129,-27.9481707 29.859309,5.168156 z"
         id="path871-2-3-9-1-50" />
      <path
         style="fill:#008000;stroke:none;stroke-width:0.264583px;stroke-linecap:butt;stroke-linejoin:miter;stroke-opacity:1"
         d="M 34.64922,28.016798 C 34.450489,40.851337 41.863134,45.91993 45.207658,42.558416 48.552178,39.196912 34.64922,28.016798 34.64922,28.016798 Z"
         id="path859-07-9-2-2-9" />
      <path
         style="fill:#ff00ff;stroke:none;stroke-width:0.264583px;stroke-linecap:butt;stroke-linejoin:miter;stroke-opacity:1"
         d="m 19.284139,18.768949 c 0,0 11.446223,-0.143806 21.344943,-18.32083519 C 50.527805,-17.728918 15.139451,4.2908411 19.284139,18.768949 Z"
         id="path867-7-7-71-9-7" />
      <path
         style="fill:#008000;stroke:none;stroke-width:0.264583px;stroke-linecap:butt;stroke-linejoin:miter;stroke-opacity:1"
         d="M 65.781495,31.190961 C 61.035799,19.264375 52.245012,17.431369 50.447987,21.819571 c -1.79702,4.388198 15.333508,9.37139 15.333508,9.37139 z"
         id="path859-07-55-0-8-6" />
      <path
         style="fill:#008000;stroke:none;stroke-width:0.264583px;stroke-linecap:butt;stroke-linejoin:miter;stroke-opacity:1"
         d="m 51.458056,5.977427 c 8.812379,-0.8085447 25.419887,14.297014 25.419887,14.297014 0,0 -19.808079,-0.602191 -25.419887,-14.297014 z"
         id="path865-40-3-2-91-5" />
      <path
         style="fill:#ff00ff;stroke:none;stroke-width:0.264583px;stroke-linecap:butt;stroke-linejoin:miter;stroke-opacity:1"
         d="m 63.314928,-2.6061412 c 0,0 -11.446741,-0.093563 -21.720242,17.8743022 C 31.321172,33.236026 67.15852,11.954802 63.314928,-2.6061412 Z"
         id="path867-7-7-71-1-5-7" />
      <path
         style="fill:#0000ff;stroke:none;stroke-width:0.217428px;stroke-linecap:butt;stroke-linejoin:miter;stroke-opacity:1"
         d="m 49.130619,-9.7563198 c 0,0 24.285142,1.0929282 29.751837,-5.7547062 5.466677,-6.847632 2.022356,29.123211 -29.751837,5.7547062 z"
         id="path871-2-7-6-6-3" />
      <path
         style="fill:#0000ff;stroke:none;stroke-width:0.217428px;stroke-linecap:butt;stroke-linejoin:miter;stroke-opacity:1"
         d="m 95.688213,14.446339 c 0,0 -22.319851,-9.6326022 -29.859307,-5.1681556 -7.539456,4.4644476 8.435127,-27.9481744 29.859307,5.1681556 z"
         id="path871-2-3-9-1-0-9" />
   </g>
</svg>
