<?xml version="1.0" encoding="utf-8"?>
<svg version="1.1" id="Layer_1" xmlns="http://www.w3.org/2000/svg" xmlns:xlink="http://www.w3.org/1999/xlink" x="0px" y="0px"
	 viewBox="0 0 5011 4110" enable-background="new 0 0 5011.389 4110.461" xml:space="preserve">
<g>
	<path fill="#EF87BB" id="_x31_" opacity="0.503" d="M593.953,539.108C1437.484,448,2914.226,311.023,3770.424,244.99
		C2914.896,337.478,1438.109,473.921,593.953,539.108z"/>
	<path fill="#8B6F75"  id="_x32_" opacity="0.502" d="M4613.561,735.186c-816.044-148.961-2238.165-431.319-3058.823-607.843
		C2382.307,278.323,3804.335,561.206,4613.561,735.186z"/>
	<path id="_x33_" opacity="0.502" d="M5.718,1068.52C788.83,779.93,2165.213,296.575,2966.502,29.304
		C2172.34,322.055,795.723,804.926,5.718,1068.52z"/>
	<path fill="#C10FA5" id="_x34_" opacity="0.502" d="M711.6,480.284c796.699-85.903,2191.401-213.762,3000-274.51
		C2903.683,292.972,1508.906,420.303,711.6,480.284z"/>
	<path fill="#C10FA5" id="_x35_" opacity="0.502" d="M2868.463,9.696C2111.527,298.25,780.675,781.621,5.718,1048.912
		C773.331,756.199,2104.345,273.336,2868.463,9.696z"/>
	<path fill="#C10FA5" id="_x36_" opacity="0.502" d="M4299.835,499.892c-824.945-54.884-2265.25-173.149-3098.039-254.902
		C2038.451,300.569,3478.744,419.37,4299.835,499.892z"/>
	<path fill="#C10FA5" id="_x37_" opacity="0.502" d="M1005.718,1284.206c724.016-59.854,1991.103-142.135,2725.49-176.471
		C2996.867,1168.527,1729.73,1250.273,1005.718,1284.206z"/>
	<path fill="#3FBF85" id="_x38_" opacity="0.502" d="M1711.6,107.735c748.057,128.066,2051.656,373.954,2803.921,529.412
		C3756.721,507.328,2453.192,260.903,1711.6,107.735z"/>
	<path fill="#3FBF85" id="_x39_" opacity="0.502" d="M5005.718,1029.304C4177.706,770.426,2737.353,296.636,1907.678,9.696
		C2747.362,272.136,4187.588,746.444,5005.718,1029.304z"/>
	<path fill="#3FBF85" id="_x31_0" opacity="0.502" d="M4084.149,1323.422c-710.481-60.122-1950.26-187.504-2666.667-274.51
		C2138.044,1109.803,3377.783,1237.719,4084.149,1323.422z"/>
	<path fill="#3FBF85" id="_x31_291" opacity="10" d="M4299.835,1892.049c-211.477-167.22-567.187-476.942-764.706-666.667
		C3750.498,1395.572,4105.807,1705.792,4299.835,1892.049z"/>
	<path fill="#FF0000" id="_x31_291" opacity="10" d="M5299,1892 C3750.498,1395.572z"/>
</g>
</svg>
