<?xml version="1.0" encoding="utf-8"?>
<!-- Generator: Adobe Illustrator 24.2.3, SVG Export Plug-In . SVG Version: 6.00 Build 0)  -->
<svg version="1.1" id="Layer_1" xmlns="http://www.w3.org/2000/svg" xmlns:xlink="http://www.w3.org/1999/xlink" x="0px" y="0px"
	 viewBox="0 0 5000 4129.539" enable-background="new 0 0 5000 4129.539" xml:space="preserve">
<g>
	<path fill="#571B75" d="M1981.854,1048.568h8.167v-28.189l-8.885,1.782v-4.554c10.606-2.139,7.536-1.782,13.835-1.782v32.743h8.167
		v4.207h-21.284V1048.568z"/>
	<path fill="#192FDF" d="M3331.586,1292.284c9.873,0,12.771,9.343,12.771,19.18c0,9.874-2.935,19.156-12.771,19.156
		c-9.834,0-12.771-9.279-12.771-19.156C3318.815,1301.631,3321.71,1292.284,3331.586,1292.284z M3331.586,1296.244
		c-6.672,0-7.747,8.552-7.747,15.221c0,6.66,1.082,15.196,7.747,15.196c6.682,0,7.771-8.49,7.771-15.196
		C3339.357,1304.773,3338.285,1296.244,3331.586,1296.244z"/>
	<path fill="#898D45" d="M4763.409,1357.465c0.136,0,0.136,0.301,0,0.301S4763.273,1357.465,4763.409,1357.465z M4763.409,1357.496
		c-0.083,0-0.083,0.239,0,0.239C4763.492,1357.735,4763.492,1357.496,4763.409,1357.496z"/>
	<path fill="#3DA7F9" d="M1253.132,1384.66c9.873,0,12.771,9.344,12.771,19.181c0,9.874-2.935,19.156-12.771,19.156
		c-9.834,0-12.771-9.279-12.771-19.156C1240.361,1394.006,1243.257,1384.66,1253.132,1384.66z M1253.132,1388.62
		c-6.672,0-7.746,8.552-7.746,15.221c0,6.66,1.082,15.196,7.746,15.196c6.682,0,7.771-8.49,7.771-15.196
		C1260.903,1397.149,1259.832,1388.62,1253.132,1388.62z"/>
	<path fill="#E3C1D3" d="M1022.193,1569.411c9.873,0,12.771,9.344,12.771,19.181c0,9.874-2.935,19.156-12.771,19.156
		c-9.834,0-12.771-9.279-12.771-19.156C1009.422,1578.758,1012.318,1569.411,1022.193,1569.411z M1022.193,1573.371
		c-6.672,0-7.746,8.552-7.746,15.221c0,6.659,1.082,15.196,7.746,15.196c6.682,0,7.771-8.49,7.771-15.196
		C1029.964,1581.9,1028.892,1573.371,1022.193,1573.371z"/>
	<path fill="#A7B5E1" d="M606.502,1662.613c9.447,0,12.22,8.94,12.22,18.353c0,9.448-2.808,18.329-12.22,18.329
		c-9.41,0-12.22-8.878-12.22-18.329C594.282,1671.556,597.053,1662.613,606.502,1662.613z M606.502,1666.402
		c-6.384,0-7.412,8.183-7.412,14.564c0,6.372,1.036,14.54,7.412,14.54c6.394,0,7.436-8.123,7.436-14.54
		C613.938,1674.563,612.913,1666.402,606.502,1666.402z"/>
	<path fill="#290D8F" d="M4162.967,1661.787c9.873,0,12.771,9.344,12.771,19.181c0,9.874-2.935,19.156-12.771,19.156
		c-9.834,0-12.771-9.279-12.771-19.156C4150.197,1671.134,4153.092,1661.787,4162.967,1661.787z M4162.967,1665.747
		c-6.672,0-7.747,8.552-7.747,15.221c0,6.659,1.082,15.196,7.747,15.196c6.682,0,7.771-8.489,7.771-15.196
		C4170.738,1674.276,4169.667,1665.747,4162.967,1665.747z"/>
	<path fill="#55EF33" d="M4106.496,1741.386h8.167v-28.189l-8.885,1.782v-4.554c10.605-2.139,7.536-1.782,13.834-1.782v32.743h8.167
		v4.207h-21.284V1741.386z"/>
</g>
</svg>
