<?xml version="1.0" encoding="utf-8"?>
<svg version="1.1" id="Layer_1" xmlns="http://www.w3.org/2000/svg" xmlns:xlink="http://www.w3.org/1999/xlink" x="0px" y="0px" viewBox="0 0 5011.389 4110.461" enable-background="new 0 0 5011.389 4110.461" xml:space="preserve">
    <g>
        <line x1="0" y1="1870" x2="10000" y2="1870" style="stroke:#000000;stroke-width:2"/>
        <line x1="2500" y1="0" x2="2500" y2="10000" style="stroke:#000000;stroke-width:2"/>
        <circle cx="2500" cy="1870" r="40" fill="#000000"/>
        <circle cx="2600" cy="1870" r="20" fill="#00ff00"/>
        <circle cx="2700" cy="1870" r="20" fill="#00ff00"/>
        <circle cx="2800" cy="1870" r="20" fill="#00ff00"/>
        <circle cx="2900" cy="1870" r="20" fill="#00ff00"/>
        <circle cx="3000" cy="1870" r="20" fill="#00ff00"/>
        <circle cx="3100" cy="1870" r="20" fill="#00ff00"/>
        <circle cx="3200" cy="1870" r="20" fill="#00ff00"/>
        <circle cx="3300" cy="1870" r="20" fill="#00ff00"/>
        <circle cx="3400" cy="1870" r="20" fill="#00ff00"/>
        <circle cx="3500" cy="1870" r="20" fill="#00ff00"/>
        <circle cx="3600" cy="1870" r="20" fill="#00ff00"/>
        <circle cx="3700" cy="1870" r="20" fill="#00ff00"/>
        <circle cx="3800" cy="1870" r="20" fill="#00ff00"/>
        <circle cx="3900" cy="1870" r="20" fill="#00ff00"/>
        <circle cx="4000" cy="1870" r="20" fill="#00ff00"/>
        <circle cx="4100" cy="1870" r="20" fill="#00ff00"/>
        <circle cx="4200" cy="1870" r="20" fill="#00ff00"/>
        <circle cx="4300" cy="1870" r="20" fill="#00ff00"/>
        <circle cx="4400" cy="1870" r="20" fill="#00ff00"/>
        <circle cx="4500" cy="1870" r="20" fill="#00ff00"/>
        <circle cx="4600" cy="1870" r="20" fill="#00ff00"/>
        <circle cx="4700" cy="1870" r="20" fill="#00ff00"/>
        <circle cx="4800" cy="1870" r="20" fill="#00ff00"/>
        <circle cx="4900" cy="1870" r="20" fill="#00ff00"/>
        <circle cx="5000" cy="1870" r="20" fill="#00ff00"/>
        <circle cx="5100" cy="1870" r="20" fill="#00ff00"/>
        <circle cx="5200" cy="1870" r="20" fill="#00ff00"/>
        <circle cx="5300" cy="1870" r="20" fill="#00ff00"/>
        <circle cx="5400" cy="1870" r="20" fill="#00ff00"/>
        <circle cx="5500" cy="1870" r="20" fill="#00ff00"/>
        <circle cx="5600" cy="1870" r="20" fill="#00ff00"/>
        <circle cx="5700" cy="1870" r="20" fill="#00ff00"/>
        <circle cx="5800" cy="1870" r="20" fill="#00ff00"/>
        <circle cx="5900" cy="1870" r="20" fill="#00ff00"/>
        <circle cx="6000" cy="1870" r="20" fill="#00ff00"/>
        <circle cx="6100" cy="1870" r="20" fill="#00ff00"/>
        <circle cx="6200" cy="1870" r="20" fill="#00ff00"/>
        <circle cx="6300" cy="1870" r="20" fill="#00ff00"/>
        <circle cx="6400" cy="1870" r="20" fill="#00ff00"/>
        <circle cx="6500" cy="1870" r="20" fill="#00ff00"/>
        <circle cx="6600" cy="1870" r="20" fill="#00ff00"/>
        <circle cx="6700" cy="1870" r="20" fill="#00ff00"/>
        <circle cx="6800" cy="1870" r="20" fill="#00ff00"/>
        <circle cx="6900" cy="1870" r="20" fill="#00ff00"/>
        <circle cx="7000" cy="1870" r="20" fill="#00ff00"/>
        <circle cx="7100" cy="1870" r="20" fill="#00ff00"/>
        <circle cx="7200" cy="1870" r="20" fill="#00ff00"/>
        <circle cx="7300" cy="1870" r="20" fill="#00ff00"/>
        <circle cx="7400" cy="1870" r="20" fill="#00ff00"/>
        <circle cx="7500" cy="1870" r="20" fill="#00ff00"/>
        <circle cx="7600" cy="1870" r="20" fill="#00ff00"/>
        <circle cx="7700" cy="1870" r="20" fill="#00ff00"/>
        <circle cx="7800" cy="1870" r="20" fill="#00ff00"/>
        <circle cx="7900" cy="1870" r="20" fill="#00ff00"/>
        <circle cx="8000" cy="1870" r="20" fill="#00ff00"/>
        <circle cx="8100" cy="1870" r="20" fill="#00ff00"/>
        <circle cx="8200" cy="1870" r="20" fill="#00ff00"/>
        <circle cx="8300" cy="1870" r="20" fill="#00ff00"/>
        <circle cx="8400" cy="1870" r="20" fill="#00ff00"/>
        <circle cx="8500" cy="1870" r="20" fill="#00ff00"/>
        <circle cx="8600" cy="1870" r="20" fill="#00ff00"/>
        <circle cx="8700" cy="1870" r="20" fill="#00ff00"/>
        <circle cx="8800" cy="1870" r="20" fill="#00ff00"/>
        <circle cx="8900" cy="1870" r="20" fill="#00ff00"/>
        <circle cx="9000" cy="1870" r="20" fill="#00ff00"/>
        <circle cx="9100" cy="1870" r="20" fill="#00ff00"/>
        <circle cx="9200" cy="1870" r="20" fill="#00ff00"/>
        <circle cx="9300" cy="1870" r="20" fill="#00ff00"/>
        <circle cx="9400" cy="1870" r="20" fill="#00ff00"/>
        <circle cx="9500" cy="1870" r="20" fill="#00ff00"/>
        <circle cx="9600" cy="1870" r="20" fill="#00ff00"/>
        <circle cx="9700" cy="1870" r="20" fill="#00ff00"/>
        <circle cx="9800" cy="1870" r="20" fill="#00ff00"/>
        <circle cx="9900" cy="1870" r="20" fill="#00ff00"/>
        <circle cx="10000" cy="1870" r="20" fill="#00ff00"/>
        <circle cx="10100" cy="1870" r="20" fill="#00ff00"/>
        <circle cx="10200" cy="1870" r="20" fill="#00ff00"/>
        <circle cx="10300" cy="1870" r="20" fill="#00ff00"/>
        <circle cx="10400" cy="1870" r="20" fill="#00ff00"/>
        <circle cx="10500" cy="1870" r="20" fill="#00ff00"/>
        <circle cx="10600" cy="1870" r="20" fill="#00ff00"/>
        <circle cx="10700" cy="1870" r="20" fill="#00ff00"/>
        <circle cx="10800" cy="1870" r="20" fill="#00ff00"/>
        <circle cx="10900" cy="1870" r="20" fill="#00ff00"/>
        <circle cx="11000" cy="1870" r="20" fill="#00ff00"/>
        <circle cx="11100" cy="1870" r="20" fill="#00ff00"/>
        <circle cx="11200" cy="1870" r="20" fill="#00ff00"/>
        <circle cx="11300" cy="1870" r="20" fill="#00ff00"/>
        <circle cx="11400" cy="1870" r="20" fill="#00ff00"/>
        <circle cx="11500" cy="1870" r="20" fill="#00ff00"/>
        <circle cx="11600" cy="1870" r="20" fill="#00ff00"/>
        <circle cx="11700" cy="1870" r="20" fill="#00ff00"/>
        <circle cx="11800" cy="1870" r="20" fill="#00ff00"/>
        <circle cx="11900" cy="1870" r="20" fill="#00ff00"/>
        <circle cx="12000" cy="1870" r="20" fill="#00ff00"/>
        <circle cx="12100" cy="1870" r="20" fill="#00ff00"/>
        <circle cx="12200" cy="1870" r="20" fill="#00ff00"/>
        <circle cx="12300" cy="1870" r="20" fill="#00ff00"/>
        <circle cx="12400" cy="1870" r="20" fill="#00ff00"/>
        <circle cx="12500" cy="1870" r="20" fill="#00ff00"/>
        <circle cx="12600" cy="1870" r="20" fill="#00ff00"/>
    </g>
</svg>
