<?xml version="1.0" encoding="utf-8"?>
<svg version="1.1" id="Layer_1" xmlns="http://www.w3.org/2000/svg" xmlns:xlink="http://www.w3.org/1999/xlink" x="0px" y="0px" viewBox="0 0 5011.389 4110.461" enable-background="new 0 0 5011.389 4110.461" xml:space="preserve" style="background-color:#696969">
    <g>
        <circle cx="500" cy="1500" r="40" fill="red"/>
        <circle cx="1600" cy="1500" r="40" fill="red"/>
        <circle cx="500" cy="2000" r="40" fill="red"/>
        <circle cx="1600" cy="2000" r="40" fill="red"/>
        <line x1="5011.389" y1="0" x2="5011.389" y2="10000" style="stroke:rgb(255,0,0);stroke-width:2"/>
        <line x1="0" y1="0" x2="0" y2="10000" style="stroke:rgb(255,0,0);stroke-width:2"/>
        <circle cx="1668.2278" cy="1487.9659" r="40" fill="blue"/>
        <circle cx="1736.4556" cy="1475.9319" r="40" fill="blue"/>
        <circle cx="1804.6833" cy="1463.8978" r="40" fill="blue"/>
        <circle cx="1872.9111" cy="1451.8638" r="40" fill="blue"/>
        <circle cx="1941.1389" cy="1439.8297" r="40" fill="blue"/>
        <circle cx="2009.3667" cy="1427.7957" r="40" fill="blue"/>
        <circle cx="2077.5945" cy="1415.7616" r="40" fill="blue"/>
        <circle cx="2145.8223" cy="1403.7275" r="40" fill="blue"/>
        <circle cx="2214.05" cy="1391.6935" r="40" fill="blue"/>
        <circle cx="2282.2778" cy="1379.6594" r="40" fill="blue"/>
        <circle cx="2350.5056" cy="1367.6254" r="40" fill="blue"/>
        <circle cx="2418.7334" cy="1355.5913" r="40" fill="blue"/>
        <circle cx="2486.9612" cy="1343.5573" r="40" fill="blue"/>
        <circle cx="2555.189" cy="1331.5232" r="40" fill="blue"/>
        <circle cx="2623.4167" cy="1319.4891" r="40" fill="blue"/>
        <circle cx="2691.6445" cy="1307.4551" r="40" fill="blue"/>
        <circle cx="2759.8723" cy="1295.421" r="40" fill="blue"/>
        <circle cx="2828.1001" cy="1283.387" r="40" fill="blue"/>
        <circle cx="2896.3279" cy="1271.3529" r="40" fill="blue"/>
        <circle cx="2964.5557" cy="1259.3188" r="40" fill="blue"/>
        <circle cx="3032.7834" cy="1247.2848" r="40" fill="blue"/>
        <circle cx="3101.0112" cy="1235.2507" r="40" fill="blue"/>
        <circle cx="3169.239" cy="1223.2167" r="40" fill="blue"/>
        <circle cx="3237.4668" cy="1211.1826" r="40" fill="blue"/>
        <circle cx="3305.6946" cy="1199.1486" r="40" fill="blue"/>
        <circle cx="3373.9224" cy="1187.1145" r="40" fill="blue"/>
        <circle cx="3442.1501" cy="1175.0804" r="40" fill="blue"/>
        <circle cx="3510.3779" cy="1163.0464" r="40" fill="blue"/>
        <circle cx="3578.6057" cy="1151.0123" r="40" fill="blue"/>
        <circle cx="3646.8335" cy="1138.9783" r="40" fill="blue"/>
        <circle cx="3715.0613" cy="1126.9442" r="40" fill="blue"/>
        <circle cx="3783.2891" cy="1114.9102" r="40" fill="blue"/>
        <circle cx="3851.5168" cy="1102.8761" r="40" fill="blue"/>
        <circle cx="3919.7446" cy="1090.842" r="40" fill="blue"/>
        <circle cx="3987.9724" cy="1078.808" r="40" fill="blue"/>
        <circle cx="4056.2002" cy="1066.7739" r="40" fill="blue"/>
        <circle cx="4124.4277" cy="1054.7399" r="40" fill="blue"/>
        <circle cx="4192.6553" cy="1042.7058" r="40" fill="blue"/>
        <circle cx="4260.8828" cy="1030.6718" r="40" fill="blue"/>
        <circle cx="4329.1104" cy="1018.6377" r="40" fill="blue"/>
        <circle cx="4397.3379" cy="1006.6036" r="40" fill="blue"/>
        <circle cx="4465.5654" cy="994.56958" r="40" fill="blue"/>
        <circle cx="4533.793" cy="982.53552" r="40" fill="blue"/>
        <circle cx="4602.0205" cy="970.50146" r="40" fill="blue"/>
        <circle cx="4670.248" cy="958.46741" r="40" fill="blue"/>
        <circle cx="4738.4756" cy="946.43335" r="40" fill="blue"/>
        <circle cx="4806.7031" cy="934.39929" r="40" fill="blue"/>
        <circle cx="4874.9307" cy="922.36523" r="40" fill="blue"/>
        <circle cx="4943.1582" cy="910.33118" r="40" fill="blue"/>
        <circle cx="5011.3857" cy="898.29712" r="40" fill="blue"/>
    </g>
</svg>
