<?xml version="1.0" encoding="utf-8"?>
<svg version="1.1" id="Layer_1" xmlns="http://www.w3.org/2000/svg" xmlns:xlink="http://www.w3.org/1999/xlink" x="0px" y="0px" viewBox="0 0 5011.389 4110.461" enable-background="new 0 0 5011.389 4110.461" xml:space="preserve" style="background-color:#696969">
    <g>
        <circle cx="500" cy="1500" r="40" fill="red"/>
        <circle cx="1600" cy="1500" r="40" fill="red"/>
        <circle cx="500" cy="2000" r="40" fill="red"/>
        <circle cx="1600" cy="2000" r="40" fill="red"/>
        <line x1="5011.389" y1="0" x2="5011.389" y2="10000" style="stroke:rgb(255,0,0);stroke-width:2"/>
        <line x1="0" y1="0" x2="0" y2="10000" style="stroke:rgb(255,0,0);stroke-width:2"/>
        <circle cx="1668.2278" cy="1500" r="40" fill="blue"/>
        <circle cx="1736.4556" cy="1500" r="40" fill="blue"/>
        <circle cx="1804.6833" cy="1500" r="40" fill="blue"/>
        <circle cx="1872.9111" cy="1500" r="40" fill="blue"/>
        <circle cx="1941.1389" cy="1500" r="40" fill="blue"/>
        <circle cx="2009.3667" cy="1500" r="40" fill="blue"/>
        <circle cx="2077.5945" cy="1500" r="40" fill="blue"/>
        <circle cx="2145.8223" cy="1500" r="40" fill="blue"/>
        <circle cx="2214.05" cy="1500" r="40" fill="blue"/>
        <circle cx="2282.2778" cy="1500" r="40" fill="blue"/>
        <circle cx="2350.5056" cy="1500" r="40" fill="blue"/>
        <circle cx="2418.7334" cy="1500" r="40" fill="blue"/>
        <circle cx="2486.9612" cy="1500" r="40" fill="blue"/>
        <circle cx="2555.189" cy="1500" r="40" fill="blue"/>
        <circle cx="2623.4167" cy="1500" r="40" fill="blue"/>
        <circle cx="2691.6445" cy="1500" r="40" fill="blue"/>
        <circle cx="2759.8723" cy="1500" r="40" fill="blue"/>
        <circle cx="2828.1001" cy="1500" r="40" fill="blue"/>
        <circle cx="2896.3279" cy="1500" r="40" fill="blue"/>
        <circle cx="2964.5557" cy="1500" r="40" fill="blue"/>
        <circle cx="3032.7834" cy="1500" r="40" fill="blue"/>
        <circle cx="3101.0112" cy="1500" r="40" fill="blue"/>
        <circle cx="3169.239" cy="1500" r="40" fill="blue"/>
        <circle cx="3237.4668" cy="1500" r="40" fill="blue"/>
        <circle cx="3305.6946" cy="1500" r="40" fill="blue"/>
        <circle cx="3373.9224" cy="1500" r="40" fill="blue"/>
        <circle cx="3442.1501" cy="1500" r="40" fill="blue"/>
        <circle cx="3510.3779" cy="1500" r="40" fill="blue"/>
        <circle cx="3578.6057" cy="1500" r="40" fill="blue"/>
        <circle cx="3646.8335" cy="1500" r="40" fill="blue"/>
        <circle cx="3715.0613" cy="1500" r="40" fill="blue"/>
        <circle cx="3783.2891" cy="1500" r="40" fill="blue"/>
        <circle cx="3851.5168" cy="1500" r="40" fill="blue"/>
        <circle cx="3919.7446" cy="1500" r="40" fill="blue"/>
        <circle cx="3987.9724" cy="1500" r="40" fill="blue"/>
        <circle cx="4056.2002" cy="1500" r="40" fill="blue"/>
        <circle cx="4124.4277" cy="1500" r="40" fill="blue"/>
        <circle cx="4192.6553" cy="1500" r="40" fill="blue"/>
        <circle cx="4260.8828" cy="1500" r="40" fill="blue"/>
        <circle cx="4329.1104" cy="1500" r="40" fill="blue"/>
        <circle cx="4397.3379" cy="1500" r="40" fill="blue"/>
        <circle cx="4465.5654" cy="1500" r="40" fill="blue"/>
        <circle cx="4533.793" cy="1500" r="40" fill="blue"/>
        <circle cx="4602.0205" cy="1500" r="40" fill="blue"/>
        <circle cx="4670.248" cy="1500" r="40" fill="blue"/>
        <circle cx="4738.4756" cy="1500" r="40" fill="blue"/>
        <circle cx="4806.7031" cy="1500" r="40" fill="blue"/>
        <circle cx="4874.9307" cy="1500" r="40" fill="blue"/>
        <circle cx="4943.1582" cy="1500" r="40" fill="blue"/>
        <circle cx="5011.3857" cy="1500" r="40" fill="blue"/>
    </g>
</svg>
